<?xml version="1.0" encoding="utf-8" standalone="no"?>
<!DOCTYPE svg PUBLIC "-//W3C//DTD SVG 1.1//EN"
  "http://www.w3.org/Graphics/SVG/1.1/DTD/svg11.dtd">
<svg xmlns:xlink="http://www.w3.org/1999/xlink" width="460.8pt" height="345.6pt" viewBox="0 0 460.8 345.6" xmlns="http://www.w3.org/2000/svg" version="1.1">
 <metadata>
  <rdf:RDF xmlns:dc="http://purl.org/dc/elements/1.1/" xmlns:cc="http://creativecommons.org/ns#" xmlns:rdf="http://www.w3.org/1999/02/22-rdf-syntax-ns#">
   <cc:Work>
    <dc:type rdf:resource="http://purl.org/dc/dcmitype/StillImage"/>
    <dc:date>2021-11-27T00:59:50.776404</dc:date>
    <dc:format>image/svg+xml</dc:format>
    <dc:creator>
     <cc:Agent>
      <dc:title>Matplotlib v3.5.0, https://matplotlib.org/</dc:title>
     </cc:Agent>
    </dc:creator>
   </cc:Work>
  </rdf:RDF>
 </metadata>
 <defs>
  <style type="text/css">*{stroke-linejoin: round; stroke-linecap: butt}</style>
 </defs>
 <g id="figure_1">
  <g id="patch_1">
   <path d="M 0 345.6 
L 460.8 345.6 
L 460.8 0 
L 0 0 
z
" style="fill: #ffffff"/>
  </g>
  <g id="axes_1">
   <g id="patch_2">
    <path d="M 47.324 243.938 
L 353.83 243.938 
L 353.83 26.016 
L 47.324 26.016 
z
" style="fill: #ffffff"/>
   </g>
   <g id="patch_3">
    <path d="M 61.256091 243.938 
L 65.82399 243.938 
L 65.82399 88.022118 
L 61.256091 88.022118 
z
" clip-path="url(#p1c2590bd79)" style="fill: #1f77b4"/>
   </g>
   <g id="patch_4">
    <path d="M 70.391888 243.938 
L 74.959787 243.938 
L 74.959787 82.977567 
L 70.391888 82.977567 
z
" clip-path="url(#p1c2590bd79)" style="fill: #1f77b4"/>
   </g>
   <g id="patch_5">
    <path d="M 79.527686 243.938 
L 84.095584 243.938 
L 84.095584 84.754665 
L 79.527686 84.754665 
z
" clip-path="url(#p1c2590bd79)" style="fill: #1f77b4"/>
   </g>
   <g id="patch_6">
    <path d="M 88.663483 243.938 
L 93.231382 243.938 
L 93.231382 86.97818 
L 88.663483 86.97818 
z
" clip-path="url(#p1c2590bd79)" style="fill: #1f77b4"/>
   </g>
   <g id="patch_7">
    <path d="M 97.79928 243.938 
L 102.367179 243.938 
L 102.367179 86.772318 
L 97.79928 86.772318 
z
" clip-path="url(#p1c2590bd79)" style="fill: #1f77b4"/>
   </g>
   <g id="patch_8">
    <path d="M 106.935077 243.938 
L 111.502976 243.938 
L 111.502976 87.468972 
L 106.935077 87.468972 
z
" clip-path="url(#p1c2590bd79)" style="fill: #1f77b4"/>
   </g>
   <g id="patch_9">
    <path d="M 116.070875 243.938 
L 120.638773 243.938 
L 120.638773 90.328001 
L 116.070875 90.328001 
z
" clip-path="url(#p1c2590bd79)" style="fill: #1f77b4"/>
   </g>
   <g id="patch_10">
    <path d="M 125.206672 243.938 
L 129.774571 243.938 
L 129.774571 91.808275 
L 125.206672 91.808275 
z
" clip-path="url(#p1c2590bd79)" style="fill: #1f77b4"/>
   </g>
   <g id="patch_11">
    <path d="M 134.342469 243.938 
L 138.910368 243.938 
L 138.910368 86.291816 
L 134.342469 86.291816 
z
" clip-path="url(#p1c2590bd79)" style="fill: #1f77b4"/>
   </g>
   <g id="patch_12">
    <path d="M 143.478267 243.938 
L 148.046165 243.938 
L 148.046165 85.345646 
L 143.478267 85.345646 
z
" clip-path="url(#p1c2590bd79)" style="fill: #1f77b4"/>
   </g>
   <g id="patch_13">
    <path d="M 152.614064 243.938 
L 157.181963 243.938 
L 157.181963 85.126234 
L 152.614064 85.126234 
z
" clip-path="url(#p1c2590bd79)" style="fill: #1f77b4"/>
   </g>
   <g id="patch_14">
    <path d="M 161.749861 243.938 
L 166.31776 243.938 
L 166.31776 88.709511 
L 161.749861 88.709511 
z
" clip-path="url(#p1c2590bd79)" style="fill: #1f77b4"/>
   </g>
   <g id="patch_15">
    <path d="M 170.885659 243.938 
L 175.453557 243.938 
L 175.453557 82.550753 
L 170.885659 82.550753 
z
" clip-path="url(#p1c2590bd79)" style="fill: #1f77b4"/>
   </g>
   <g id="patch_16">
    <path d="M 180.021456 243.938 
L 184.589355 243.938 
L 184.589355 79.874026 
L 180.021456 79.874026 
z
" clip-path="url(#p1c2590bd79)" style="fill: #1f77b4"/>
   </g>
   <g id="patch_17">
    <path d="M 189.157253 243.938 
L 193.725152 243.938 
L 193.725152 81.693776 
L 189.157253 81.693776 
z
" clip-path="url(#p1c2590bd79)" style="fill: #1f77b4"/>
   </g>
   <g id="patch_18">
    <path d="M 198.293051 243.938 
L 202.860949 243.938 
L 202.860949 113.12146 
L 198.293051 113.12146 
z
" clip-path="url(#p1c2590bd79)" style="fill: #1f77b4"/>
   </g>
   <g id="patch_19">
    <path d="M 207.428848 243.938 
L 211.996747 243.938 
L 211.996747 112.675401 
L 207.428848 112.675401 
z
" clip-path="url(#p1c2590bd79)" style="fill: #1f77b4"/>
   </g>
   <g id="patch_20">
    <path d="M 216.564645 243.938 
L 221.132544 243.938 
L 221.132544 103.078529 
L 216.564645 103.078529 
z
" clip-path="url(#p1c2590bd79)" style="fill: #1f77b4"/>
   </g>
   <g id="patch_21">
    <path d="M 225.700443 243.938 
L 230.268341 243.938 
L 230.268341 98.865593 
L 225.700443 98.865593 
z
" clip-path="url(#p1c2590bd79)" style="fill: #1f77b4"/>
   </g>
   <g id="patch_22">
    <path d="M 234.83624 243.938 
L 239.404139 243.938 
L 239.404139 95.586945 
L 234.83624 95.586945 
z
" clip-path="url(#p1c2590bd79)" style="fill: #1f77b4"/>
   </g>
   <g id="patch_23">
    <path d="M 243.972037 243.938 
L 248.539936 243.938 
L 248.539936 88.18418 
L 243.972037 88.18418 
z
" clip-path="url(#p1c2590bd79)" style="fill: #1f77b4"/>
   </g>
   <g id="patch_24">
    <path d="M 253.107835 243.938 
L 257.675733 243.938 
L 257.675733 82.543719 
L 253.107835 82.543719 
z
" clip-path="url(#p1c2590bd79)" style="fill: #1f77b4"/>
   </g>
   <g id="patch_25">
    <path d="M 262.243632 243.938 
L 266.811531 243.938 
L 266.811531 82.455259 
L 262.243632 82.455259 
z
" clip-path="url(#p1c2590bd79)" style="fill: #1f77b4"/>
   </g>
   <g id="patch_26">
    <path d="M 271.379429 243.938 
L 275.947328 243.938 
L 275.947328 85.533788 
L 271.379429 85.533788 
z
" clip-path="url(#p1c2590bd79)" style="fill: #1f77b4"/>
   </g>
   <g id="patch_27">
    <path d="M 280.515227 243.938 
L 285.083125 243.938 
L 285.083125 83.767383 
L 280.515227 83.767383 
z
" clip-path="url(#p1c2590bd79)" style="fill: #1f77b4"/>
   </g>
   <g id="patch_28">
    <path d="M 289.651024 243.938 
L 294.218923 243.938 
L 294.218923 81.390094 
L 289.651024 81.390094 
z
" clip-path="url(#p1c2590bd79)" style="fill: #1f77b4"/>
   </g>
   <g id="patch_29">
    <path d="M 298.786821 243.938 
L 303.35472 243.938 
L 303.35472 80.732321 
L 298.786821 80.732321 
z
" clip-path="url(#p1c2590bd79)" style="fill: #1f77b4"/>
   </g>
   <g id="patch_30">
    <path d="M 307.922618 243.938 
L 312.490517 243.938 
L 312.490517 78.414977 
L 307.922618 78.414977 
z
" clip-path="url(#p1c2590bd79)" style="fill: #1f77b4"/>
   </g>
   <g id="patch_31">
    <path d="M 317.058416 243.938 
L 321.626314 243.938 
L 321.626314 76.528245 
L 317.058416 76.528245 
z
" clip-path="url(#p1c2590bd79)" style="fill: #1f77b4"/>
   </g>
   <g id="patch_32">
    <path d="M 326.194213 243.938 
L 330.762112 243.938 
L 330.762112 76.871968 
L 326.194213 76.871968 
z
" clip-path="url(#p1c2590bd79)" style="fill: #1f77b4"/>
   </g>
   <g id="patch_33">
    <path d="M 335.33001 243.938 
L 339.897909 243.938 
L 339.897909 79.666108 
L 335.33001 79.666108 
z
" clip-path="url(#p1c2590bd79)" style="fill: #1f77b4"/>
   </g>
   <g id="patch_34">
    <path d="M 61.256091 88.022118 
L 65.82399 88.022118 
L 65.82399 27.275617 
L 61.256091 27.275617 
z
" clip-path="url(#p1c2590bd79)" style="fill: #ff7f0e"/>
   </g>
   <g id="patch_35">
    <path d="M 70.391888 82.977567 
L 74.959787 82.977567 
L 74.959787 27.485872 
L 70.391888 27.485872 
z
" clip-path="url(#p1c2590bd79)" style="fill: #ff7f0e"/>
   </g>
   <g id="patch_36">
    <path d="M 79.527686 84.754665 
L 84.095584 84.754665 
L 84.095584 27.516425 
L 79.527686 27.516425 
z
" clip-path="url(#p1c2590bd79)" style="fill: #ff7f0e"/>
   </g>
   <g id="patch_37">
    <path d="M 88.663483 86.97818 
L 93.231382 86.97818 
L 93.231382 27.541945 
L 88.663483 27.541945 
z
" clip-path="url(#p1c2590bd79)" style="fill: #ff7f0e"/>
   </g>
   <g id="patch_38">
    <path d="M 97.79928 86.772318 
L 102.367179 86.772318 
L 102.367179 27.625377 
L 97.79928 27.625377 
z
" clip-path="url(#p1c2590bd79)" style="fill: #ff7f0e"/>
   </g>
   <g id="patch_39">
    <path d="M 106.935077 87.468972 
L 111.502976 87.468972 
L 111.502976 27.711322 
L 106.935077 27.711322 
z
" clip-path="url(#p1c2590bd79)" style="fill: #ff7f0e"/>
   </g>
   <g id="patch_40">
    <path d="M 116.070875 90.328001 
L 120.638773 90.328001 
L 120.638773 27.771163 
L 116.070875 27.771163 
z
" clip-path="url(#p1c2590bd79)" style="fill: #ff7f0e"/>
   </g>
   <g id="patch_41">
    <path d="M 125.206672 91.808275 
L 129.774571 91.808275 
L 129.774571 27.887919 
L 125.206672 27.887919 
z
" clip-path="url(#p1c2590bd79)" style="fill: #ff7f0e"/>
   </g>
   <g id="patch_42">
    <path d="M 134.342469 86.291816 
L 138.910368 86.291816 
L 138.910368 27.808092 
L 134.342469 27.808092 
z
" clip-path="url(#p1c2590bd79)" style="fill: #ff7f0e"/>
   </g>
   <g id="patch_43">
    <path d="M 143.478267 85.345646 
L 148.046165 85.345646 
L 148.046165 27.769879 
L 143.478267 27.769879 
z
" clip-path="url(#p1c2590bd79)" style="fill: #ff7f0e"/>
   </g>
   <g id="patch_44">
    <path d="M 152.614064 85.126234 
L 157.181963 85.126234 
L 157.181963 27.769333 
L 152.614064 27.769333 
z
" clip-path="url(#p1c2590bd79)" style="fill: #ff7f0e"/>
   </g>
   <g id="patch_45">
    <path d="M 161.749861 88.709511 
L 166.31776 88.709511 
L 166.31776 27.837042 
L 161.749861 27.837042 
z
" clip-path="url(#p1c2590bd79)" style="fill: #ff7f0e"/>
   </g>
   <g id="patch_46">
    <path d="M 170.885659 82.550753 
L 175.453557 82.550753 
L 175.453557 27.762655 
L 170.885659 27.762655 
z
" clip-path="url(#p1c2590bd79)" style="fill: #ff7f0e"/>
   </g>
   <g id="patch_47">
    <path d="M 180.021456 79.874026 
L 184.589355 79.874026 
L 184.589355 27.769873 
L 180.021456 27.769873 
z
" clip-path="url(#p1c2590bd79)" style="fill: #ff7f0e"/>
   </g>
   <g id="patch_48">
    <path d="M 189.157253 81.693776 
L 193.725152 81.693776 
L 193.725152 27.974839 
L 189.157253 27.974839 
z
" clip-path="url(#p1c2590bd79)" style="fill: #ff7f0e"/>
   </g>
   <g id="patch_49">
    <path d="M 198.293051 113.12146 
L 202.860949 113.12146 
L 202.860949 30.295222 
L 198.293051 30.295222 
z
" clip-path="url(#p1c2590bd79)" style="fill: #ff7f0e"/>
   </g>
   <g id="patch_50">
    <path d="M 207.428848 112.675401 
L 211.996747 112.675401 
L 211.996747 30.282833 
L 207.428848 30.282833 
z
" clip-path="url(#p1c2590bd79)" style="fill: #ff7f0e"/>
   </g>
   <g id="patch_51">
    <path d="M 216.564645 103.078529 
L 221.132544 103.078529 
L 221.132544 29.30425 
L 216.564645 29.30425 
z
" clip-path="url(#p1c2590bd79)" style="fill: #ff7f0e"/>
   </g>
   <g id="patch_52">
    <path d="M 225.700443 98.865593 
L 230.268341 98.865593 
L 230.268341 29.008496 
L 225.700443 29.008496 
z
" clip-path="url(#p1c2590bd79)" style="fill: #ff7f0e"/>
   </g>
   <g id="patch_53">
    <path d="M 234.83624 95.586945 
L 239.404139 95.586945 
L 239.404139 28.790521 
L 234.83624 28.790521 
z
" clip-path="url(#p1c2590bd79)" style="fill: #ff7f0e"/>
   </g>
   <g id="patch_54">
    <path d="M 243.972037 88.18418 
L 248.539936 88.18418 
L 248.539936 28.382151 
L 243.972037 28.382151 
z
" clip-path="url(#p1c2590bd79)" style="fill: #ff7f0e"/>
   </g>
   <g id="patch_55">
    <path d="M 253.107835 82.543719 
L 257.675733 82.543719 
L 257.675733 28.178182 
L 253.107835 28.178182 
z
" clip-path="url(#p1c2590bd79)" style="fill: #ff7f0e"/>
   </g>
   <g id="patch_56">
    <path d="M 262.243632 82.455259 
L 266.811531 82.455259 
L 266.811531 28.307014 
L 262.243632 28.307014 
z
" clip-path="url(#p1c2590bd79)" style="fill: #ff7f0e"/>
   </g>
   <g id="patch_57">
    <path d="M 271.379429 85.533788 
L 275.947328 85.533788 
L 275.947328 28.474241 
L 271.379429 28.474241 
z
" clip-path="url(#p1c2590bd79)" style="fill: #ff7f0e"/>
   </g>
   <g id="patch_58">
    <path d="M 280.515227 83.767383 
L 285.083125 83.767383 
L 285.083125 28.423536 
L 280.515227 28.423536 
z
" clip-path="url(#p1c2590bd79)" style="fill: #ff7f0e"/>
   </g>
   <g id="patch_59">
    <path d="M 289.651024 81.390094 
L 294.218923 81.390094 
L 294.218923 28.43472 
L 289.651024 28.43472 
z
" clip-path="url(#p1c2590bd79)" style="fill: #ff7f0e"/>
   </g>
   <g id="patch_60">
    <path d="M 298.786821 80.732321 
L 303.35472 80.732321 
L 303.35472 28.363263 
L 298.786821 28.363263 
z
" clip-path="url(#p1c2590bd79)" style="fill: #ff7f0e"/>
   </g>
   <g id="patch_61">
    <path d="M 307.922618 78.414977 
L 312.490517 78.414977 
L 312.490517 28.2276 
L 307.922618 28.2276 
z
" clip-path="url(#p1c2590bd79)" style="fill: #ff7f0e"/>
   </g>
   <g id="patch_62">
    <path d="M 317.058416 76.528245 
L 321.626314 76.528245 
L 321.626314 28.054827 
L 317.058416 28.054827 
z
" clip-path="url(#p1c2590bd79)" style="fill: #ff7f0e"/>
   </g>
   <g id="patch_63">
    <path d="M 326.194213 76.871968 
L 330.762112 76.871968 
L 330.762112 28.000546 
L 326.194213 28.000546 
z
" clip-path="url(#p1c2590bd79)" style="fill: #ff7f0e"/>
   </g>
   <g id="patch_64">
    <path d="M 335.33001 79.666108 
L 339.897909 79.666108 
L 339.897909 28.107124 
L 335.33001 28.107124 
z
" clip-path="url(#p1c2590bd79)" style="fill: #ff7f0e"/>
   </g>
   <g id="patch_65">
    <path d="M 61.256091 27.275617 
L 65.82399 27.275617 
L 65.82399 26.332452 
L 61.256091 26.332452 
z
" clip-path="url(#p1c2590bd79)" style="fill: #2ca02c"/>
   </g>
   <g id="patch_66">
    <path d="M 70.391888 27.485872 
L 74.959787 27.485872 
L 74.959787 26.405412 
L 70.391888 26.405412 
z
" clip-path="url(#p1c2590bd79)" style="fill: #2ca02c"/>
   </g>
   <g id="patch_67">
    <path d="M 79.527686 27.516425 
L 84.095584 27.516425 
L 84.095584 26.42352 
L 79.527686 26.42352 
z
" clip-path="url(#p1c2590bd79)" style="fill: #2ca02c"/>
   </g>
   <g id="patch_68">
    <path d="M 88.663483 27.541945 
L 93.231382 27.541945 
L 93.231382 26.419545 
L 88.663483 26.419545 
z
" clip-path="url(#p1c2590bd79)" style="fill: #2ca02c"/>
   </g>
   <g id="patch_69">
    <path d="M 97.79928 27.625377 
L 102.367179 27.625377 
L 102.367179 26.452206 
L 97.79928 26.452206 
z
" clip-path="url(#p1c2590bd79)" style="fill: #2ca02c"/>
   </g>
   <g id="patch_70">
    <path d="M 106.935077 27.711322 
L 111.502976 27.711322 
L 111.502976 26.507429 
L 106.935077 26.507429 
z
" clip-path="url(#p1c2590bd79)" style="fill: #2ca02c"/>
   </g>
   <g id="patch_71">
    <path d="M 116.070875 27.771163 
L 120.638773 27.771163 
L 120.638773 26.5391 
L 116.070875 26.5391 
z
" clip-path="url(#p1c2590bd79)" style="fill: #2ca02c"/>
   </g>
   <g id="patch_72">
    <path d="M 125.206672 27.887919 
L 129.774571 27.887919 
L 129.774571 26.590276 
L 125.206672 26.590276 
z
" clip-path="url(#p1c2590bd79)" style="fill: #2ca02c"/>
   </g>
   <g id="patch_73">
    <path d="M 134.342469 27.808092 
L 138.910368 27.808092 
L 138.910368 26.555195 
L 134.342469 26.555195 
z
" clip-path="url(#p1c2590bd79)" style="fill: #2ca02c"/>
   </g>
   <g id="patch_74">
    <path d="M 143.478267 27.769879 
L 148.046165 27.769879 
L 148.046165 26.560005 
L 143.478267 26.560005 
z
" clip-path="url(#p1c2590bd79)" style="fill: #2ca02c"/>
   </g>
   <g id="patch_75">
    <path d="M 152.614064 27.769333 
L 157.181963 27.769333 
L 157.181963 26.597793 
L 152.614064 26.597793 
z
" clip-path="url(#p1c2590bd79)" style="fill: #2ca02c"/>
   </g>
   <g id="patch_76">
    <path d="M 161.749861 27.837042 
L 166.31776 27.837042 
L 166.31776 26.656298 
L 161.749861 26.656298 
z
" clip-path="url(#p1c2590bd79)" style="fill: #2ca02c"/>
   </g>
   <g id="patch_77">
    <path d="M 170.885659 27.762655 
L 175.453557 27.762655 
L 175.453557 26.636185 
L 170.885659 26.636185 
z
" clip-path="url(#p1c2590bd79)" style="fill: #2ca02c"/>
   </g>
   <g id="patch_78">
    <path d="M 180.021456 27.769873 
L 184.589355 27.769873 
L 184.589355 26.651412 
L 180.021456 26.651412 
z
" clip-path="url(#p1c2590bd79)" style="fill: #2ca02c"/>
   </g>
   <g id="patch_79">
    <path d="M 189.157253 27.974839 
L 193.725152 27.974839 
L 193.725152 26.724158 
L 189.157253 26.724158 
z
" clip-path="url(#p1c2590bd79)" style="fill: #2ca02c"/>
   </g>
   <g id="patch_80">
    <path d="M 198.293051 30.295222 
L 202.860949 30.295222 
L 202.860949 27.392644 
L 198.293051 27.392644 
z
" clip-path="url(#p1c2590bd79)" style="fill: #2ca02c"/>
   </g>
   <g id="patch_81">
    <path d="M 207.428848 30.282833 
L 211.996747 30.282833 
L 211.996747 27.319029 
L 207.428848 27.319029 
z
" clip-path="url(#p1c2590bd79)" style="fill: #2ca02c"/>
   </g>
   <g id="patch_82">
    <path d="M 216.564645 29.30425 
L 221.132544 29.30425 
L 221.132544 27.013856 
L 216.564645 27.013856 
z
" clip-path="url(#p1c2590bd79)" style="fill: #2ca02c"/>
   </g>
   <g id="patch_83">
    <path d="M 225.700443 29.008496 
L 230.268341 29.008496 
L 230.268341 26.993737 
L 225.700443 26.993737 
z
" clip-path="url(#p1c2590bd79)" style="fill: #2ca02c"/>
   </g>
   <g id="patch_84">
    <path d="M 234.83624 28.790521 
L 239.404139 28.790521 
L 239.404139 26.99158 
L 234.83624 26.99158 
z
" clip-path="url(#p1c2590bd79)" style="fill: #2ca02c"/>
   </g>
   <g id="patch_85">
    <path d="M 243.972037 28.382151 
L 248.539936 28.382151 
L 248.539936 26.894292 
L 243.972037 26.894292 
z
" clip-path="url(#p1c2590bd79)" style="fill: #2ca02c"/>
   </g>
   <g id="patch_86">
    <path d="M 253.107835 28.178182 
L 257.675733 28.178182 
L 257.675733 26.859897 
L 253.107835 26.859897 
z
" clip-path="url(#p1c2590bd79)" style="fill: #2ca02c"/>
   </g>
   <g id="patch_87">
    <path d="M 262.243632 28.307014 
L 266.811531 28.307014 
L 266.811531 26.939911 
L 262.243632 26.939911 
z
" clip-path="url(#p1c2590bd79)" style="fill: #2ca02c"/>
   </g>
   <g id="patch_88">
    <path d="M 271.379429 28.474241 
L 275.947328 28.474241 
L 275.947328 27.031969 
L 271.379429 27.031969 
z
" clip-path="url(#p1c2590bd79)" style="fill: #2ca02c"/>
   </g>
   <g id="patch_89">
    <path d="M 280.515227 28.423536 
L 285.083125 28.423536 
L 285.083125 26.986501 
L 280.515227 26.986501 
z
" clip-path="url(#p1c2590bd79)" style="fill: #2ca02c"/>
   </g>
   <g id="patch_90">
    <path d="M 289.651024 28.43472 
L 294.218923 28.43472 
L 294.218923 26.949515 
L 289.651024 26.949515 
z
" clip-path="url(#p1c2590bd79)" style="fill: #2ca02c"/>
   </g>
   <g id="patch_91">
    <path d="M 298.786821 28.363263 
L 303.35472 28.363263 
L 303.35472 26.931002 
L 298.786821 26.931002 
z
" clip-path="url(#p1c2590bd79)" style="fill: #2ca02c"/>
   </g>
   <g id="patch_92">
    <path d="M 307.922618 28.2276 
L 312.490517 28.2276 
L 312.490517 26.921983 
L 307.922618 26.921983 
z
" clip-path="url(#p1c2590bd79)" style="fill: #2ca02c"/>
   </g>
   <g id="patch_93">
    <path d="M 317.058416 28.054827 
L 321.626314 28.054827 
L 321.626314 26.889947 
L 317.058416 26.889947 
z
" clip-path="url(#p1c2590bd79)" style="fill: #2ca02c"/>
   </g>
   <g id="patch_94">
    <path d="M 326.194213 28.000546 
L 330.762112 28.000546 
L 330.762112 26.92489 
L 326.194213 26.92489 
z
" clip-path="url(#p1c2590bd79)" style="fill: #2ca02c"/>
   </g>
   <g id="patch_95">
    <path d="M 335.33001 28.107124 
L 339.897909 28.107124 
L 339.897909 26.955741 
L 335.33001 26.955741 
z
" clip-path="url(#p1c2590bd79)" style="fill: #2ca02c"/>
   </g>
   <g id="patch_96">
    <path d="M 61.256091 26.332452 
L 65.82399 26.332452 
L 65.82399 26.015165 
L 61.256091 26.015165 
z
" clip-path="url(#p1c2590bd79)" style="fill: #d62728"/>
   </g>
   <g id="patch_97">
    <path d="M 70.391888 26.405412 
L 74.959787 26.405412 
L 74.959787 26.015165 
L 70.391888 26.015165 
z
" clip-path="url(#p1c2590bd79)" style="fill: #d62728"/>
   </g>
   <g id="patch_98">
    <path d="M 79.527686 26.42352 
L 84.095584 26.42352 
L 84.095584 26.016 
L 79.527686 26.016 
z
" clip-path="url(#p1c2590bd79)" style="fill: #d62728"/>
   </g>
   <g id="patch_99">
    <path d="M 88.663483 26.419545 
L 93.231382 26.419545 
L 93.231382 26.015165 
L 88.663483 26.015165 
z
" clip-path="url(#p1c2590bd79)" style="fill: #d62728"/>
   </g>
   <g id="patch_100">
    <path d="M 97.79928 26.452206 
L 102.367179 26.452206 
L 102.367179 26.015165 
L 97.79928 26.015165 
z
" clip-path="url(#p1c2590bd79)" style="fill: #d62728"/>
   </g>
   <g id="patch_101">
    <path d="M 106.935077 26.507429 
L 111.502976 26.507429 
L 111.502976 26.015165 
L 106.935077 26.015165 
z
" clip-path="url(#p1c2590bd79)" style="fill: #d62728"/>
   </g>
   <g id="patch_102">
    <path d="M 116.070875 26.5391 
L 120.638773 26.5391 
L 120.638773 26.015165 
L 116.070875 26.015165 
z
" clip-path="url(#p1c2590bd79)" style="fill: #d62728"/>
   </g>
   <g id="patch_103">
    <path d="M 125.206672 26.590276 
L 129.774571 26.590276 
L 129.774571 26.015201 
L 125.206672 26.015201 
z
" clip-path="url(#p1c2590bd79)" style="fill: #d62728"/>
   </g>
   <g id="patch_104">
    <path d="M 134.342469 26.555195 
L 138.910368 26.555195 
L 138.910368 26.015165 
L 134.342469 26.015165 
z
" clip-path="url(#p1c2590bd79)" style="fill: #d62728"/>
   </g>
   <g id="patch_105">
    <path d="M 143.478267 26.560005 
L 148.046165 26.560005 
L 148.046165 26.015165 
L 143.478267 26.015165 
z
" clip-path="url(#p1c2590bd79)" style="fill: #d62728"/>
   </g>
   <g id="patch_106">
    <path d="M 152.614064 26.597793 
L 157.181963 26.597793 
L 157.181963 26.015197 
L 152.614064 26.015197 
z
" clip-path="url(#p1c2590bd79)" style="fill: #d62728"/>
   </g>
   <g id="patch_107">
    <path d="M 161.749861 26.656298 
L 166.31776 26.656298 
L 166.31776 26.015197 
L 161.749861 26.015197 
z
" clip-path="url(#p1c2590bd79)" style="fill: #d62728"/>
   </g>
   <g id="patch_108">
    <path d="M 170.885659 26.636185 
L 175.453557 26.636185 
L 175.453557 26.0152 
L 170.885659 26.0152 
z
" clip-path="url(#p1c2590bd79)" style="fill: #d62728"/>
   </g>
   <g id="patch_109">
    <path d="M 180.021456 26.651412 
L 184.589355 26.651412 
L 184.589355 26.015165 
L 180.021456 26.015165 
z
" clip-path="url(#p1c2590bd79)" style="fill: #d62728"/>
   </g>
   <g id="patch_110">
    <path d="M 189.157253 26.724158 
L 193.725152 26.724158 
L 193.725152 26.015165 
L 189.157253 26.015165 
z
" clip-path="url(#p1c2590bd79)" style="fill: #d62728"/>
   </g>
   <g id="patch_111">
    <path d="M 198.293051 27.392644 
L 202.860949 27.392644 
L 202.860949 26.015165 
L 198.293051 26.015165 
z
" clip-path="url(#p1c2590bd79)" style="fill: #d62728"/>
   </g>
   <g id="patch_112">
    <path d="M 207.428848 27.319029 
L 211.996747 27.319029 
L 211.996747 26.015165 
L 207.428848 26.015165 
z
" clip-path="url(#p1c2590bd79)" style="fill: #d62728"/>
   </g>
   <g id="patch_113">
    <path d="M 216.564645 27.013856 
L 221.132544 27.013856 
L 221.132544 26.020405 
L 216.564645 26.020405 
z
" clip-path="url(#p1c2590bd79)" style="fill: #d62728"/>
   </g>
   <g id="patch_114">
    <path d="M 225.700443 26.993737 
L 230.268341 26.993737 
L 230.268341 26.015165 
L 225.700443 26.015165 
z
" clip-path="url(#p1c2590bd79)" style="fill: #d62728"/>
   </g>
   <g id="patch_115">
    <path d="M 234.83624 26.99158 
L 239.404139 26.99158 
L 239.404139 26.015398 
L 234.83624 26.015398 
z
" clip-path="url(#p1c2590bd79)" style="fill: #d62728"/>
   </g>
   <g id="patch_116">
    <path d="M 243.972037 26.894292 
L 248.539936 26.894292 
L 248.539936 26.015165 
L 243.972037 26.015165 
z
" clip-path="url(#p1c2590bd79)" style="fill: #d62728"/>
   </g>
   <g id="patch_117">
    <path d="M 253.107835 26.859897 
L 257.675733 26.859897 
L 257.675733 26.015165 
L 253.107835 26.015165 
z
" clip-path="url(#p1c2590bd79)" style="fill: #d62728"/>
   </g>
   <g id="patch_118">
    <path d="M 262.243632 26.939911 
L 266.811531 26.939911 
L 266.811531 26.01532 
L 262.243632 26.01532 
z
" clip-path="url(#p1c2590bd79)" style="fill: #d62728"/>
   </g>
   <g id="patch_119">
    <path d="M 271.379429 27.031969 
L 275.947328 27.031969 
L 275.947328 26.015165 
L 271.379429 26.015165 
z
" clip-path="url(#p1c2590bd79)" style="fill: #d62728"/>
   </g>
   <g id="patch_120">
    <path d="M 280.515227 26.986501 
L 285.083125 26.986501 
L 285.083125 26.015165 
L 280.515227 26.015165 
z
" clip-path="url(#p1c2590bd79)" style="fill: #d62728"/>
   </g>
   <g id="patch_121">
    <path d="M 289.651024 26.949515 
L 294.218923 26.949515 
L 294.218923 26.015165 
L 289.651024 26.015165 
z
" clip-path="url(#p1c2590bd79)" style="fill: #d62728"/>
   </g>
   <g id="patch_122">
    <path d="M 298.786821 26.931002 
L 303.35472 26.931002 
L 303.35472 26.015165 
L 298.786821 26.015165 
z
" clip-path="url(#p1c2590bd79)" style="fill: #d62728"/>
   </g>
   <g id="patch_123">
    <path d="M 307.922618 26.921983 
L 312.490517 26.921983 
L 312.490517 26.015165 
L 307.922618 26.015165 
z
" clip-path="url(#p1c2590bd79)" style="fill: #d62728"/>
   </g>
   <g id="patch_124">
    <path d="M 317.058416 26.889947 
L 321.626314 26.889947 
L 321.626314 26.015165 
L 317.058416 26.015165 
z
" clip-path="url(#p1c2590bd79)" style="fill: #d62728"/>
   </g>
   <g id="patch_125">
    <path d="M 326.194213 26.92489 
L 330.762112 26.92489 
L 330.762112 26.015165 
L 326.194213 26.015165 
z
" clip-path="url(#p1c2590bd79)" style="fill: #d62728"/>
   </g>
   <g id="patch_126">
    <path d="M 335.33001 26.955741 
L 339.897909 26.955741 
L 339.897909 26.015246 
L 335.33001 26.015246 
z
" clip-path="url(#p1c2590bd79)" style="fill: #d62728"/>
   </g>
   <g id="patch_127">
    <path d="M 61.256091 26.015165 
L 65.82399 26.015165 
L 65.82399 26.015165 
L 61.256091 26.015165 
z
" clip-path="url(#p1c2590bd79)" style="fill: #9467bd"/>
   </g>
   <g id="patch_128">
    <path d="M 70.391888 26.015165 
L 74.959787 26.015165 
L 74.959787 26.015165 
L 70.391888 26.015165 
z
" clip-path="url(#p1c2590bd79)" style="fill: #9467bd"/>
   </g>
   <g id="patch_129">
    <path d="M 79.527686 26.016 
L 84.095584 26.016 
L 84.095584 26.015165 
L 79.527686 26.015165 
z
" clip-path="url(#p1c2590bd79)" style="fill: #9467bd"/>
   </g>
   <g id="patch_130">
    <path d="M 88.663483 26.015165 
L 93.231382 26.015165 
L 93.231382 26.015165 
L 88.663483 26.015165 
z
" clip-path="url(#p1c2590bd79)" style="fill: #9467bd"/>
   </g>
   <g id="patch_131">
    <path d="M 97.79928 26.015165 
L 102.367179 26.015165 
L 102.367179 26.015165 
L 97.79928 26.015165 
z
" clip-path="url(#p1c2590bd79)" style="fill: #9467bd"/>
   </g>
   <g id="patch_132">
    <path d="M 106.935077 26.015165 
L 111.502976 26.015165 
L 111.502976 26.015165 
L 106.935077 26.015165 
z
" clip-path="url(#p1c2590bd79)" style="fill: #9467bd"/>
   </g>
   <g id="patch_133">
    <path d="M 116.070875 26.015165 
L 120.638773 26.015165 
L 120.638773 26.015165 
L 116.070875 26.015165 
z
" clip-path="url(#p1c2590bd79)" style="fill: #9467bd"/>
   </g>
   <g id="patch_134">
    <path d="M 125.206672 26.015201 
L 129.774571 26.015201 
L 129.774571 26.015165 
L 125.206672 26.015165 
z
" clip-path="url(#p1c2590bd79)" style="fill: #9467bd"/>
   </g>
   <g id="patch_135">
    <path d="M 134.342469 26.015165 
L 138.910368 26.015165 
L 138.910368 26.015165 
L 134.342469 26.015165 
z
" clip-path="url(#p1c2590bd79)" style="fill: #9467bd"/>
   </g>
   <g id="patch_136">
    <path d="M 143.478267 26.015165 
L 148.046165 26.015165 
L 148.046165 26.015165 
L 143.478267 26.015165 
z
" clip-path="url(#p1c2590bd79)" style="fill: #9467bd"/>
   </g>
   <g id="patch_137">
    <path d="M 152.614064 26.015197 
L 157.181963 26.015197 
L 157.181963 26.015165 
L 152.614064 26.015165 
z
" clip-path="url(#p1c2590bd79)" style="fill: #9467bd"/>
   </g>
   <g id="patch_138">
    <path d="M 161.749861 26.015197 
L 166.31776 26.015197 
L 166.31776 26.015165 
L 161.749861 26.015165 
z
" clip-path="url(#p1c2590bd79)" style="fill: #9467bd"/>
   </g>
   <g id="patch_139">
    <path d="M 170.885659 26.0152 
L 175.453557 26.0152 
L 175.453557 26.015165 
L 170.885659 26.015165 
z
" clip-path="url(#p1c2590bd79)" style="fill: #9467bd"/>
   </g>
   <g id="patch_140">
    <path d="M 180.021456 26.015165 
L 184.589355 26.015165 
L 184.589355 26.015165 
L 180.021456 26.015165 
z
" clip-path="url(#p1c2590bd79)" style="fill: #9467bd"/>
   </g>
   <g id="patch_141">
    <path d="M 189.157253 26.015165 
L 193.725152 26.015165 
L 193.725152 26.015165 
L 189.157253 26.015165 
z
" clip-path="url(#p1c2590bd79)" style="fill: #9467bd"/>
   </g>
   <g id="patch_142">
    <path d="M 198.293051 26.015165 
L 202.860949 26.015165 
L 202.860949 26.015165 
L 198.293051 26.015165 
z
" clip-path="url(#p1c2590bd79)" style="fill: #9467bd"/>
   </g>
   <g id="patch_143">
    <path d="M 207.428848 26.015165 
L 211.996747 26.015165 
L 211.996747 26.015165 
L 207.428848 26.015165 
z
" clip-path="url(#p1c2590bd79)" style="fill: #9467bd"/>
   </g>
   <g id="patch_144">
    <path d="M 216.564645 26.020405 
L 221.132544 26.020405 
L 221.132544 26.015165 
L 216.564645 26.015165 
z
" clip-path="url(#p1c2590bd79)" style="fill: #9467bd"/>
   </g>
   <g id="patch_145">
    <path d="M 225.700443 26.015165 
L 230.268341 26.015165 
L 230.268341 26.015165 
L 225.700443 26.015165 
z
" clip-path="url(#p1c2590bd79)" style="fill: #9467bd"/>
   </g>
   <g id="patch_146">
    <path d="M 234.83624 26.015398 
L 239.404139 26.015398 
L 239.404139 26.015165 
L 234.83624 26.015165 
z
" clip-path="url(#p1c2590bd79)" style="fill: #9467bd"/>
   </g>
   <g id="patch_147">
    <path d="M 243.972037 26.015165 
L 248.539936 26.015165 
L 248.539936 26.015165 
L 243.972037 26.015165 
z
" clip-path="url(#p1c2590bd79)" style="fill: #9467bd"/>
   </g>
   <g id="patch_148">
    <path d="M 253.107835 26.015165 
L 257.675733 26.015165 
L 257.675733 26.015165 
L 253.107835 26.015165 
z
" clip-path="url(#p1c2590bd79)" style="fill: #9467bd"/>
   </g>
   <g id="patch_149">
    <path d="M 262.243632 26.01532 
L 266.811531 26.01532 
L 266.811531 26.015165 
L 262.243632 26.015165 
z
" clip-path="url(#p1c2590bd79)" style="fill: #9467bd"/>
   </g>
   <g id="patch_150">
    <path d="M 271.379429 26.015165 
L 275.947328 26.015165 
L 275.947328 26.015165 
L 271.379429 26.015165 
z
" clip-path="url(#p1c2590bd79)" style="fill: #9467bd"/>
   </g>
   <g id="patch_151">
    <path d="M 280.515227 26.015165 
L 285.083125 26.015165 
L 285.083125 26.015165 
L 280.515227 26.015165 
z
" clip-path="url(#p1c2590bd79)" style="fill: #9467bd"/>
   </g>
   <g id="patch_152">
    <path d="M 289.651024 26.015165 
L 294.218923 26.015165 
L 294.218923 26.015165 
L 289.651024 26.015165 
z
" clip-path="url(#p1c2590bd79)" style="fill: #9467bd"/>
   </g>
   <g id="patch_153">
    <path d="M 298.786821 26.015165 
L 303.35472 26.015165 
L 303.35472 26.015165 
L 298.786821 26.015165 
z
" clip-path="url(#p1c2590bd79)" style="fill: #9467bd"/>
   </g>
   <g id="patch_154">
    <path d="M 307.922618 26.015165 
L 312.490517 26.015165 
L 312.490517 26.015165 
L 307.922618 26.015165 
z
" clip-path="url(#p1c2590bd79)" style="fill: #9467bd"/>
   </g>
   <g id="patch_155">
    <path d="M 317.058416 26.015165 
L 321.626314 26.015165 
L 321.626314 26.015165 
L 317.058416 26.015165 
z
" clip-path="url(#p1c2590bd79)" style="fill: #9467bd"/>
   </g>
   <g id="patch_156">
    <path d="M 326.194213 26.015165 
L 330.762112 26.015165 
L 330.762112 26.015165 
L 326.194213 26.015165 
z
" clip-path="url(#p1c2590bd79)" style="fill: #9467bd"/>
   </g>
   <g id="patch_157">
    <path d="M 335.33001 26.015246 
L 339.897909 26.015246 
L 339.897909 26.015165 
L 335.33001 26.015165 
z
" clip-path="url(#p1c2590bd79)" style="fill: #9467bd"/>
   </g>
   <g id="patch_158">
    <path d="M 61.256091 26.015165 
L 65.82399 26.015165 
L 65.82399 26.015165 
L 61.256091 26.015165 
z
" clip-path="url(#p1c2590bd79)" style="fill: #8c564b"/>
   </g>
   <g id="patch_159">
    <path d="M 70.391888 26.015165 
L 74.959787 26.015165 
L 74.959787 26.015165 
L 70.391888 26.015165 
z
" clip-path="url(#p1c2590bd79)" style="fill: #8c564b"/>
   </g>
   <g id="patch_160">
    <path d="M 79.527686 26.015165 
L 84.095584 26.015165 
L 84.095584 26.015165 
L 79.527686 26.015165 
z
" clip-path="url(#p1c2590bd79)" style="fill: #8c564b"/>
   </g>
   <g id="patch_161">
    <path d="M 88.663483 26.015165 
L 93.231382 26.015165 
L 93.231382 26.015165 
L 88.663483 26.015165 
z
" clip-path="url(#p1c2590bd79)" style="fill: #8c564b"/>
   </g>
   <g id="patch_162">
    <path d="M 97.79928 26.015165 
L 102.367179 26.015165 
L 102.367179 26.015165 
L 97.79928 26.015165 
z
" clip-path="url(#p1c2590bd79)" style="fill: #8c564b"/>
   </g>
   <g id="patch_163">
    <path d="M 106.935077 26.015165 
L 111.502976 26.015165 
L 111.502976 26.015165 
L 106.935077 26.015165 
z
" clip-path="url(#p1c2590bd79)" style="fill: #8c564b"/>
   </g>
   <g id="patch_164">
    <path d="M 116.070875 26.015165 
L 120.638773 26.015165 
L 120.638773 26.015165 
L 116.070875 26.015165 
z
" clip-path="url(#p1c2590bd79)" style="fill: #8c564b"/>
   </g>
   <g id="patch_165">
    <path d="M 125.206672 26.015165 
L 129.774571 26.015165 
L 129.774571 26.015165 
L 125.206672 26.015165 
z
" clip-path="url(#p1c2590bd79)" style="fill: #8c564b"/>
   </g>
   <g id="patch_166">
    <path d="M 134.342469 26.015165 
L 138.910368 26.015165 
L 138.910368 26.015165 
L 134.342469 26.015165 
z
" clip-path="url(#p1c2590bd79)" style="fill: #8c564b"/>
   </g>
   <g id="patch_167">
    <path d="M 143.478267 26.015165 
L 148.046165 26.015165 
L 148.046165 26.015165 
L 143.478267 26.015165 
z
" clip-path="url(#p1c2590bd79)" style="fill: #8c564b"/>
   </g>
   <g id="patch_168">
    <path d="M 152.614064 26.015165 
L 157.181963 26.015165 
L 157.181963 26.015165 
L 152.614064 26.015165 
z
" clip-path="url(#p1c2590bd79)" style="fill: #8c564b"/>
   </g>
   <g id="patch_169">
    <path d="M 161.749861 26.015165 
L 166.31776 26.015165 
L 166.31776 26.015165 
L 161.749861 26.015165 
z
" clip-path="url(#p1c2590bd79)" style="fill: #8c564b"/>
   </g>
   <g id="patch_170">
    <path d="M 170.885659 26.015165 
L 175.453557 26.015165 
L 175.453557 26.015165 
L 170.885659 26.015165 
z
" clip-path="url(#p1c2590bd79)" style="fill: #8c564b"/>
   </g>
   <g id="patch_171">
    <path d="M 180.021456 26.015165 
L 184.589355 26.015165 
L 184.589355 26.015165 
L 180.021456 26.015165 
z
" clip-path="url(#p1c2590bd79)" style="fill: #8c564b"/>
   </g>
   <g id="patch_172">
    <path d="M 189.157253 26.015165 
L 193.725152 26.015165 
L 193.725152 26.015165 
L 189.157253 26.015165 
z
" clip-path="url(#p1c2590bd79)" style="fill: #8c564b"/>
   </g>
   <g id="patch_173">
    <path d="M 198.293051 26.015165 
L 202.860949 26.015165 
L 202.860949 26.015165 
L 198.293051 26.015165 
z
" clip-path="url(#p1c2590bd79)" style="fill: #8c564b"/>
   </g>
   <g id="patch_174">
    <path d="M 207.428848 26.015165 
L 211.996747 26.015165 
L 211.996747 26.015165 
L 207.428848 26.015165 
z
" clip-path="url(#p1c2590bd79)" style="fill: #8c564b"/>
   </g>
   <g id="patch_175">
    <path d="M 216.564645 26.015165 
L 221.132544 26.015165 
L 221.132544 26.015165 
L 216.564645 26.015165 
z
" clip-path="url(#p1c2590bd79)" style="fill: #8c564b"/>
   </g>
   <g id="patch_176">
    <path d="M 225.700443 26.015165 
L 230.268341 26.015165 
L 230.268341 26.015165 
L 225.700443 26.015165 
z
" clip-path="url(#p1c2590bd79)" style="fill: #8c564b"/>
   </g>
   <g id="patch_177">
    <path d="M 234.83624 26.015165 
L 239.404139 26.015165 
L 239.404139 26.015165 
L 234.83624 26.015165 
z
" clip-path="url(#p1c2590bd79)" style="fill: #8c564b"/>
   </g>
   <g id="patch_178">
    <path d="M 243.972037 26.015165 
L 248.539936 26.015165 
L 248.539936 26.015165 
L 243.972037 26.015165 
z
" clip-path="url(#p1c2590bd79)" style="fill: #8c564b"/>
   </g>
   <g id="patch_179">
    <path d="M 253.107835 26.015165 
L 257.675733 26.015165 
L 257.675733 26.015165 
L 253.107835 26.015165 
z
" clip-path="url(#p1c2590bd79)" style="fill: #8c564b"/>
   </g>
   <g id="patch_180">
    <path d="M 262.243632 26.015165 
L 266.811531 26.015165 
L 266.811531 26.015165 
L 262.243632 26.015165 
z
" clip-path="url(#p1c2590bd79)" style="fill: #8c564b"/>
   </g>
   <g id="patch_181">
    <path d="M 271.379429 26.015165 
L 275.947328 26.015165 
L 275.947328 26.015165 
L 271.379429 26.015165 
z
" clip-path="url(#p1c2590bd79)" style="fill: #8c564b"/>
   </g>
   <g id="patch_182">
    <path d="M 280.515227 26.015165 
L 285.083125 26.015165 
L 285.083125 26.015165 
L 280.515227 26.015165 
z
" clip-path="url(#p1c2590bd79)" style="fill: #8c564b"/>
   </g>
   <g id="patch_183">
    <path d="M 289.651024 26.015165 
L 294.218923 26.015165 
L 294.218923 26.015165 
L 289.651024 26.015165 
z
" clip-path="url(#p1c2590bd79)" style="fill: #8c564b"/>
   </g>
   <g id="patch_184">
    <path d="M 298.786821 26.015165 
L 303.35472 26.015165 
L 303.35472 26.015165 
L 298.786821 26.015165 
z
" clip-path="url(#p1c2590bd79)" style="fill: #8c564b"/>
   </g>
   <g id="patch_185">
    <path d="M 307.922618 26.015165 
L 312.490517 26.015165 
L 312.490517 26.015165 
L 307.922618 26.015165 
z
" clip-path="url(#p1c2590bd79)" style="fill: #8c564b"/>
   </g>
   <g id="patch_186">
    <path d="M 317.058416 26.015165 
L 321.626314 26.015165 
L 321.626314 26.015165 
L 317.058416 26.015165 
z
" clip-path="url(#p1c2590bd79)" style="fill: #8c564b"/>
   </g>
   <g id="patch_187">
    <path d="M 326.194213 26.015165 
L 330.762112 26.015165 
L 330.762112 26.015165 
L 326.194213 26.015165 
z
" clip-path="url(#p1c2590bd79)" style="fill: #8c564b"/>
   </g>
   <g id="patch_188">
    <path d="M 335.33001 26.015165 
L 339.897909 26.015165 
L 339.897909 26.015165 
L 335.33001 26.015165 
z
" clip-path="url(#p1c2590bd79)" style="fill: #8c564b"/>
   </g>
   <g id="matplotlib.axis_1">
    <g id="xtick_1">
     <g id="line2d_1">
      <defs>
       <path id="m3072073bab" d="M 0 0 
L 0 3.5 
" style="stroke: #000000; stroke-width: 0.8"/>
      </defs>
      <g>
       <use xlink:href="#m3072073bab" x="63.54004" y="243.938" style="stroke: #000000; stroke-width: 0.8"/>
      </g>
     </g>
     <g id="text_1">
      <!-- January 2019 -->
      <g transform="translate(66.299415 317.477062)rotate(-90)scale(0.1 -0.1)">
       <defs>
        <path id="DejaVuSans-4a" d="M 628 4666 
L 1259 4666 
L 1259 325 
Q 1259 -519 939 -900 
Q 619 -1281 -91 -1281 
L -331 -1281 
L -331 -750 
L -134 -750 
Q 284 -750 456 -515 
Q 628 -281 628 325 
L 628 4666 
z
" transform="scale(0.015625)"/>
        <path id="DejaVuSans-61" d="M 2194 1759 
Q 1497 1759 1228 1600 
Q 959 1441 959 1056 
Q 959 750 1161 570 
Q 1363 391 1709 391 
Q 2188 391 2477 730 
Q 2766 1069 2766 1631 
L 2766 1759 
L 2194 1759 
z
M 3341 1997 
L 3341 0 
L 2766 0 
L 2766 531 
Q 2569 213 2275 61 
Q 1981 -91 1556 -91 
Q 1019 -91 701 211 
Q 384 513 384 1019 
Q 384 1609 779 1909 
Q 1175 2209 1959 2209 
L 2766 2209 
L 2766 2266 
Q 2766 2663 2505 2880 
Q 2244 3097 1772 3097 
Q 1472 3097 1187 3025 
Q 903 2953 641 2809 
L 641 3341 
Q 956 3463 1253 3523 
Q 1550 3584 1831 3584 
Q 2591 3584 2966 3190 
Q 3341 2797 3341 1997 
z
" transform="scale(0.015625)"/>
        <path id="DejaVuSans-6e" d="M 3513 2113 
L 3513 0 
L 2938 0 
L 2938 2094 
Q 2938 2591 2744 2837 
Q 2550 3084 2163 3084 
Q 1697 3084 1428 2787 
Q 1159 2491 1159 1978 
L 1159 0 
L 581 0 
L 581 3500 
L 1159 3500 
L 1159 2956 
Q 1366 3272 1645 3428 
Q 1925 3584 2291 3584 
Q 2894 3584 3203 3211 
Q 3513 2838 3513 2113 
z
" transform="scale(0.015625)"/>
        <path id="DejaVuSans-75" d="M 544 1381 
L 544 3500 
L 1119 3500 
L 1119 1403 
Q 1119 906 1312 657 
Q 1506 409 1894 409 
Q 2359 409 2629 706 
Q 2900 1003 2900 1516 
L 2900 3500 
L 3475 3500 
L 3475 0 
L 2900 0 
L 2900 538 
Q 2691 219 2414 64 
Q 2138 -91 1772 -91 
Q 1169 -91 856 284 
Q 544 659 544 1381 
z
M 1991 3584 
L 1991 3584 
z
" transform="scale(0.015625)"/>
        <path id="DejaVuSans-72" d="M 2631 2963 
Q 2534 3019 2420 3045 
Q 2306 3072 2169 3072 
Q 1681 3072 1420 2755 
Q 1159 2438 1159 1844 
L 1159 0 
L 581 0 
L 581 3500 
L 1159 3500 
L 1159 2956 
Q 1341 3275 1631 3429 
Q 1922 3584 2338 3584 
Q 2397 3584 2469 3576 
Q 2541 3569 2628 3553 
L 2631 2963 
z
" transform="scale(0.015625)"/>
        <path id="DejaVuSans-79" d="M 2059 -325 
Q 1816 -950 1584 -1140 
Q 1353 -1331 966 -1331 
L 506 -1331 
L 506 -850 
L 844 -850 
Q 1081 -850 1212 -737 
Q 1344 -625 1503 -206 
L 1606 56 
L 191 3500 
L 800 3500 
L 1894 763 
L 2988 3500 
L 3597 3500 
L 2059 -325 
z
" transform="scale(0.015625)"/>
        <path id="DejaVuSans-20" transform="scale(0.015625)"/>
        <path id="DejaVuSans-32" d="M 1228 531 
L 3431 531 
L 3431 0 
L 469 0 
L 469 531 
Q 828 903 1448 1529 
Q 2069 2156 2228 2338 
Q 2531 2678 2651 2914 
Q 2772 3150 2772 3378 
Q 2772 3750 2511 3984 
Q 2250 4219 1831 4219 
Q 1534 4219 1204 4116 
Q 875 4013 500 3803 
L 500 4441 
Q 881 4594 1212 4672 
Q 1544 4750 1819 4750 
Q 2544 4750 2975 4387 
Q 3406 4025 3406 3419 
Q 3406 3131 3298 2873 
Q 3191 2616 2906 2266 
Q 2828 2175 2409 1742 
Q 1991 1309 1228 531 
z
" transform="scale(0.015625)"/>
        <path id="DejaVuSans-30" d="M 2034 4250 
Q 1547 4250 1301 3770 
Q 1056 3291 1056 2328 
Q 1056 1369 1301 889 
Q 1547 409 2034 409 
Q 2525 409 2770 889 
Q 3016 1369 3016 2328 
Q 3016 3291 2770 3770 
Q 2525 4250 2034 4250 
z
M 2034 4750 
Q 2819 4750 3233 4129 
Q 3647 3509 3647 2328 
Q 3647 1150 3233 529 
Q 2819 -91 2034 -91 
Q 1250 -91 836 529 
Q 422 1150 422 2328 
Q 422 3509 836 4129 
Q 1250 4750 2034 4750 
z
" transform="scale(0.015625)"/>
        <path id="DejaVuSans-31" d="M 794 531 
L 1825 531 
L 1825 4091 
L 703 3866 
L 703 4441 
L 1819 4666 
L 2450 4666 
L 2450 531 
L 3481 531 
L 3481 0 
L 794 0 
L 794 531 
z
" transform="scale(0.015625)"/>
        <path id="DejaVuSans-39" d="M 703 97 
L 703 672 
Q 941 559 1184 500 
Q 1428 441 1663 441 
Q 2288 441 2617 861 
Q 2947 1281 2994 2138 
Q 2813 1869 2534 1725 
Q 2256 1581 1919 1581 
Q 1219 1581 811 2004 
Q 403 2428 403 3163 
Q 403 3881 828 4315 
Q 1253 4750 1959 4750 
Q 2769 4750 3195 4129 
Q 3622 3509 3622 2328 
Q 3622 1225 3098 567 
Q 2575 -91 1691 -91 
Q 1453 -91 1209 -44 
Q 966 3 703 97 
z
M 1959 2075 
Q 2384 2075 2632 2365 
Q 2881 2656 2881 3163 
Q 2881 3666 2632 3958 
Q 2384 4250 1959 4250 
Q 1534 4250 1286 3958 
Q 1038 3666 1038 3163 
Q 1038 2656 1286 2365 
Q 1534 2075 1959 2075 
z
" transform="scale(0.015625)"/>
       </defs>
       <use xlink:href="#DejaVuSans-4a"/>
       <use xlink:href="#DejaVuSans-61" x="29.492188"/>
       <use xlink:href="#DejaVuSans-6e" x="90.771484"/>
       <use xlink:href="#DejaVuSans-75" x="154.150391"/>
       <use xlink:href="#DejaVuSans-61" x="217.529297"/>
       <use xlink:href="#DejaVuSans-72" x="278.808594"/>
       <use xlink:href="#DejaVuSans-79" x="319.921875"/>
       <use xlink:href="#DejaVuSans-20" x="379.101562"/>
       <use xlink:href="#DejaVuSans-32" x="410.888672"/>
       <use xlink:href="#DejaVuSans-30" x="474.511719"/>
       <use xlink:href="#DejaVuSans-31" x="538.134766"/>
       <use xlink:href="#DejaVuSans-39" x="601.757812"/>
      </g>
     </g>
    </g>
    <g id="xtick_2">
     <g id="line2d_2">
      <g>
       <use xlink:href="#m3072073bab" x="72.675838" y="243.938" style="stroke: #000000; stroke-width: 0.8"/>
      </g>
     </g>
     <g id="text_2">
      <!-- February 2019 -->
      <g transform="translate(75.435213 323.8755)rotate(-90)scale(0.1 -0.1)">
       <defs>
        <path id="DejaVuSans-46" d="M 628 4666 
L 3309 4666 
L 3309 4134 
L 1259 4134 
L 1259 2759 
L 3109 2759 
L 3109 2228 
L 1259 2228 
L 1259 0 
L 628 0 
L 628 4666 
z
" transform="scale(0.015625)"/>
        <path id="DejaVuSans-65" d="M 3597 1894 
L 3597 1613 
L 953 1613 
Q 991 1019 1311 708 
Q 1631 397 2203 397 
Q 2534 397 2845 478 
Q 3156 559 3463 722 
L 3463 178 
Q 3153 47 2828 -22 
Q 2503 -91 2169 -91 
Q 1331 -91 842 396 
Q 353 884 353 1716 
Q 353 2575 817 3079 
Q 1281 3584 2069 3584 
Q 2775 3584 3186 3129 
Q 3597 2675 3597 1894 
z
M 3022 2063 
Q 3016 2534 2758 2815 
Q 2500 3097 2075 3097 
Q 1594 3097 1305 2825 
Q 1016 2553 972 2059 
L 3022 2063 
z
" transform="scale(0.015625)"/>
        <path id="DejaVuSans-62" d="M 3116 1747 
Q 3116 2381 2855 2742 
Q 2594 3103 2138 3103 
Q 1681 3103 1420 2742 
Q 1159 2381 1159 1747 
Q 1159 1113 1420 752 
Q 1681 391 2138 391 
Q 2594 391 2855 752 
Q 3116 1113 3116 1747 
z
M 1159 2969 
Q 1341 3281 1617 3432 
Q 1894 3584 2278 3584 
Q 2916 3584 3314 3078 
Q 3713 2572 3713 1747 
Q 3713 922 3314 415 
Q 2916 -91 2278 -91 
Q 1894 -91 1617 61 
Q 1341 213 1159 525 
L 1159 0 
L 581 0 
L 581 4863 
L 1159 4863 
L 1159 2969 
z
" transform="scale(0.015625)"/>
       </defs>
       <use xlink:href="#DejaVuSans-46"/>
       <use xlink:href="#DejaVuSans-65" x="52.019531"/>
       <use xlink:href="#DejaVuSans-62" x="113.542969"/>
       <use xlink:href="#DejaVuSans-72" x="177.019531"/>
       <use xlink:href="#DejaVuSans-75" x="218.132812"/>
       <use xlink:href="#DejaVuSans-61" x="281.511719"/>
       <use xlink:href="#DejaVuSans-72" x="342.791016"/>
       <use xlink:href="#DejaVuSans-79" x="383.904297"/>
       <use xlink:href="#DejaVuSans-20" x="443.083984"/>
       <use xlink:href="#DejaVuSans-32" x="474.871094"/>
       <use xlink:href="#DejaVuSans-30" x="538.494141"/>
       <use xlink:href="#DejaVuSans-31" x="602.117188"/>
       <use xlink:href="#DejaVuSans-39" x="665.740234"/>
      </g>
     </g>
    </g>
    <g id="xtick_3">
     <g id="line2d_3">
      <g>
       <use xlink:href="#m3072073bab" x="81.811635" y="243.938" style="stroke: #000000; stroke-width: 0.8"/>
      </g>
     </g>
     <g id="text_3">
      <!-- March 2019 -->
      <g transform="translate(84.57101 310.04425)rotate(-90)scale(0.1 -0.1)">
       <defs>
        <path id="DejaVuSans-4d" d="M 628 4666 
L 1569 4666 
L 2759 1491 
L 3956 4666 
L 4897 4666 
L 4897 0 
L 4281 0 
L 4281 4097 
L 3078 897 
L 2444 897 
L 1241 4097 
L 1241 0 
L 628 0 
L 628 4666 
z
" transform="scale(0.015625)"/>
        <path id="DejaVuSans-63" d="M 3122 3366 
L 3122 2828 
Q 2878 2963 2633 3030 
Q 2388 3097 2138 3097 
Q 1578 3097 1268 2742 
Q 959 2388 959 1747 
Q 959 1106 1268 751 
Q 1578 397 2138 397 
Q 2388 397 2633 464 
Q 2878 531 3122 666 
L 3122 134 
Q 2881 22 2623 -34 
Q 2366 -91 2075 -91 
Q 1284 -91 818 406 
Q 353 903 353 1747 
Q 353 2603 823 3093 
Q 1294 3584 2113 3584 
Q 2378 3584 2631 3529 
Q 2884 3475 3122 3366 
z
" transform="scale(0.015625)"/>
        <path id="DejaVuSans-68" d="M 3513 2113 
L 3513 0 
L 2938 0 
L 2938 2094 
Q 2938 2591 2744 2837 
Q 2550 3084 2163 3084 
Q 1697 3084 1428 2787 
Q 1159 2491 1159 1978 
L 1159 0 
L 581 0 
L 581 4863 
L 1159 4863 
L 1159 2956 
Q 1366 3272 1645 3428 
Q 1925 3584 2291 3584 
Q 2894 3584 3203 3211 
Q 3513 2838 3513 2113 
z
" transform="scale(0.015625)"/>
       </defs>
       <use xlink:href="#DejaVuSans-4d"/>
       <use xlink:href="#DejaVuSans-61" x="86.279297"/>
       <use xlink:href="#DejaVuSans-72" x="147.558594"/>
       <use xlink:href="#DejaVuSans-63" x="186.421875"/>
       <use xlink:href="#DejaVuSans-68" x="241.402344"/>
       <use xlink:href="#DejaVuSans-20" x="304.78125"/>
       <use xlink:href="#DejaVuSans-32" x="336.568359"/>
       <use xlink:href="#DejaVuSans-30" x="400.191406"/>
       <use xlink:href="#DejaVuSans-31" x="463.814453"/>
       <use xlink:href="#DejaVuSans-39" x="527.4375"/>
      </g>
     </g>
    </g>
    <g id="xtick_4">
     <g id="line2d_4">
      <g>
       <use xlink:href="#m3072073bab" x="90.947432" y="243.938" style="stroke: #000000; stroke-width: 0.8"/>
      </g>
     </g>
     <g id="text_4">
      <!-- April 2019 -->
      <g transform="translate(93.706807 302.422375)rotate(-90)scale(0.1 -0.1)">
       <defs>
        <path id="DejaVuSans-41" d="M 2188 4044 
L 1331 1722 
L 3047 1722 
L 2188 4044 
z
M 1831 4666 
L 2547 4666 
L 4325 0 
L 3669 0 
L 3244 1197 
L 1141 1197 
L 716 0 
L 50 0 
L 1831 4666 
z
" transform="scale(0.015625)"/>
        <path id="DejaVuSans-70" d="M 1159 525 
L 1159 -1331 
L 581 -1331 
L 581 3500 
L 1159 3500 
L 1159 2969 
Q 1341 3281 1617 3432 
Q 1894 3584 2278 3584 
Q 2916 3584 3314 3078 
Q 3713 2572 3713 1747 
Q 3713 922 3314 415 
Q 2916 -91 2278 -91 
Q 1894 -91 1617 61 
Q 1341 213 1159 525 
z
M 3116 1747 
Q 3116 2381 2855 2742 
Q 2594 3103 2138 3103 
Q 1681 3103 1420 2742 
Q 1159 2381 1159 1747 
Q 1159 1113 1420 752 
Q 1681 391 2138 391 
Q 2594 391 2855 752 
Q 3116 1113 3116 1747 
z
" transform="scale(0.015625)"/>
        <path id="DejaVuSans-69" d="M 603 3500 
L 1178 3500 
L 1178 0 
L 603 0 
L 603 3500 
z
M 603 4863 
L 1178 4863 
L 1178 4134 
L 603 4134 
L 603 4863 
z
" transform="scale(0.015625)"/>
        <path id="DejaVuSans-6c" d="M 603 4863 
L 1178 4863 
L 1178 0 
L 603 0 
L 603 4863 
z
" transform="scale(0.015625)"/>
       </defs>
       <use xlink:href="#DejaVuSans-41"/>
       <use xlink:href="#DejaVuSans-70" x="68.408203"/>
       <use xlink:href="#DejaVuSans-72" x="131.884766"/>
       <use xlink:href="#DejaVuSans-69" x="172.998047"/>
       <use xlink:href="#DejaVuSans-6c" x="200.78125"/>
       <use xlink:href="#DejaVuSans-20" x="228.564453"/>
       <use xlink:href="#DejaVuSans-32" x="260.351562"/>
       <use xlink:href="#DejaVuSans-30" x="323.974609"/>
       <use xlink:href="#DejaVuSans-31" x="387.597656"/>
       <use xlink:href="#DejaVuSans-39" x="451.220703"/>
      </g>
     </g>
    </g>
    <g id="xtick_5">
     <g id="line2d_5">
      <g>
       <use xlink:href="#m3072073bab" x="100.08323" y="243.938" style="stroke: #000000; stroke-width: 0.8"/>
      </g>
     </g>
     <g id="text_5">
      <!-- May 2019 -->
      <g transform="translate(102.842605 300.241125)rotate(-90)scale(0.1 -0.1)">
       <use xlink:href="#DejaVuSans-4d"/>
       <use xlink:href="#DejaVuSans-61" x="86.279297"/>
       <use xlink:href="#DejaVuSans-79" x="147.558594"/>
       <use xlink:href="#DejaVuSans-20" x="206.738281"/>
       <use xlink:href="#DejaVuSans-32" x="238.525391"/>
       <use xlink:href="#DejaVuSans-30" x="302.148438"/>
       <use xlink:href="#DejaVuSans-31" x="365.771484"/>
       <use xlink:href="#DejaVuSans-39" x="429.394531"/>
      </g>
     </g>
    </g>
    <g id="xtick_6">
     <g id="line2d_6">
      <g>
       <use xlink:href="#m3072073bab" x="109.219027" y="243.938" style="stroke: #000000; stroke-width: 0.8"/>
      </g>
     </g>
     <g id="text_6">
      <!-- June 2019 -->
      <g transform="translate(111.978402 301.34425)rotate(-90)scale(0.1 -0.1)">
       <use xlink:href="#DejaVuSans-4a"/>
       <use xlink:href="#DejaVuSans-75" x="29.492188"/>
       <use xlink:href="#DejaVuSans-6e" x="92.871094"/>
       <use xlink:href="#DejaVuSans-65" x="156.25"/>
       <use xlink:href="#DejaVuSans-20" x="217.773438"/>
       <use xlink:href="#DejaVuSans-32" x="249.560547"/>
       <use xlink:href="#DejaVuSans-30" x="313.183594"/>
       <use xlink:href="#DejaVuSans-31" x="376.806641"/>
       <use xlink:href="#DejaVuSans-39" x="440.429688"/>
      </g>
     </g>
    </g>
    <g id="xtick_7">
     <g id="line2d_7">
      <g>
       <use xlink:href="#m3072073bab" x="118.354824" y="243.938" style="stroke: #000000; stroke-width: 0.8"/>
      </g>
     </g>
     <g id="text_7">
      <!-- July 2019 -->
      <g transform="translate(121.114199 297.5505)rotate(-90)scale(0.1 -0.1)">
       <use xlink:href="#DejaVuSans-4a"/>
       <use xlink:href="#DejaVuSans-75" x="29.492188"/>
       <use xlink:href="#DejaVuSans-6c" x="92.871094"/>
       <use xlink:href="#DejaVuSans-79" x="120.654297"/>
       <use xlink:href="#DejaVuSans-20" x="179.833984"/>
       <use xlink:href="#DejaVuSans-32" x="211.621094"/>
       <use xlink:href="#DejaVuSans-30" x="275.244141"/>
       <use xlink:href="#DejaVuSans-31" x="338.867188"/>
       <use xlink:href="#DejaVuSans-39" x="402.490234"/>
      </g>
     </g>
    </g>
    <g id="xtick_8">
     <g id="line2d_8">
      <g>
       <use xlink:href="#m3072073bab" x="127.490621" y="243.938" style="stroke: #000000; stroke-width: 0.8"/>
      </g>
     </g>
     <g id="text_8">
      <!-- August 2019 -->
      <g transform="translate(130.249996 314.559875)rotate(-90)scale(0.1 -0.1)">
       <defs>
        <path id="DejaVuSans-67" d="M 2906 1791 
Q 2906 2416 2648 2759 
Q 2391 3103 1925 3103 
Q 1463 3103 1205 2759 
Q 947 2416 947 1791 
Q 947 1169 1205 825 
Q 1463 481 1925 481 
Q 2391 481 2648 825 
Q 2906 1169 2906 1791 
z
M 3481 434 
Q 3481 -459 3084 -895 
Q 2688 -1331 1869 -1331 
Q 1566 -1331 1297 -1286 
Q 1028 -1241 775 -1147 
L 775 -588 
Q 1028 -725 1275 -790 
Q 1522 -856 1778 -856 
Q 2344 -856 2625 -561 
Q 2906 -266 2906 331 
L 2906 616 
Q 2728 306 2450 153 
Q 2172 0 1784 0 
Q 1141 0 747 490 
Q 353 981 353 1791 
Q 353 2603 747 3093 
Q 1141 3584 1784 3584 
Q 2172 3584 2450 3431 
Q 2728 3278 2906 2969 
L 2906 3500 
L 3481 3500 
L 3481 434 
z
" transform="scale(0.015625)"/>
        <path id="DejaVuSans-73" d="M 2834 3397 
L 2834 2853 
Q 2591 2978 2328 3040 
Q 2066 3103 1784 3103 
Q 1356 3103 1142 2972 
Q 928 2841 928 2578 
Q 928 2378 1081 2264 
Q 1234 2150 1697 2047 
L 1894 2003 
Q 2506 1872 2764 1633 
Q 3022 1394 3022 966 
Q 3022 478 2636 193 
Q 2250 -91 1575 -91 
Q 1294 -91 989 -36 
Q 684 19 347 128 
L 347 722 
Q 666 556 975 473 
Q 1284 391 1588 391 
Q 1994 391 2212 530 
Q 2431 669 2431 922 
Q 2431 1156 2273 1281 
Q 2116 1406 1581 1522 
L 1381 1569 
Q 847 1681 609 1914 
Q 372 2147 372 2553 
Q 372 3047 722 3315 
Q 1072 3584 1716 3584 
Q 2034 3584 2315 3537 
Q 2597 3491 2834 3397 
z
" transform="scale(0.015625)"/>
        <path id="DejaVuSans-74" d="M 1172 4494 
L 1172 3500 
L 2356 3500 
L 2356 3053 
L 1172 3053 
L 1172 1153 
Q 1172 725 1289 603 
Q 1406 481 1766 481 
L 2356 481 
L 2356 0 
L 1766 0 
Q 1100 0 847 248 
Q 594 497 594 1153 
L 594 3053 
L 172 3053 
L 172 3500 
L 594 3500 
L 594 4494 
L 1172 4494 
z
" transform="scale(0.015625)"/>
       </defs>
       <use xlink:href="#DejaVuSans-41"/>
       <use xlink:href="#DejaVuSans-75" x="68.408203"/>
       <use xlink:href="#DejaVuSans-67" x="131.787109"/>
       <use xlink:href="#DejaVuSans-75" x="195.263672"/>
       <use xlink:href="#DejaVuSans-73" x="258.642578"/>
       <use xlink:href="#DejaVuSans-74" x="310.742188"/>
       <use xlink:href="#DejaVuSans-20" x="349.951172"/>
       <use xlink:href="#DejaVuSans-32" x="381.738281"/>
       <use xlink:href="#DejaVuSans-30" x="445.361328"/>
       <use xlink:href="#DejaVuSans-31" x="508.984375"/>
       <use xlink:href="#DejaVuSans-39" x="572.607422"/>
      </g>
     </g>
    </g>
    <g id="xtick_9">
     <g id="line2d_9">
      <g>
       <use xlink:href="#m3072073bab" x="136.626419" y="243.938" style="stroke: #000000; stroke-width: 0.8"/>
      </g>
     </g>
     <g id="text_9">
      <!-- September 2019 -->
      <g transform="translate(139.385794 334.842687)rotate(-90)scale(0.1 -0.1)">
       <defs>
        <path id="DejaVuSans-53" d="M 3425 4513 
L 3425 3897 
Q 3066 4069 2747 4153 
Q 2428 4238 2131 4238 
Q 1616 4238 1336 4038 
Q 1056 3838 1056 3469 
Q 1056 3159 1242 3001 
Q 1428 2844 1947 2747 
L 2328 2669 
Q 3034 2534 3370 2195 
Q 3706 1856 3706 1288 
Q 3706 609 3251 259 
Q 2797 -91 1919 -91 
Q 1588 -91 1214 -16 
Q 841 59 441 206 
L 441 856 
Q 825 641 1194 531 
Q 1563 422 1919 422 
Q 2459 422 2753 634 
Q 3047 847 3047 1241 
Q 3047 1584 2836 1778 
Q 2625 1972 2144 2069 
L 1759 2144 
Q 1053 2284 737 2584 
Q 422 2884 422 3419 
Q 422 4038 858 4394 
Q 1294 4750 2059 4750 
Q 2388 4750 2728 4690 
Q 3069 4631 3425 4513 
z
" transform="scale(0.015625)"/>
        <path id="DejaVuSans-6d" d="M 3328 2828 
Q 3544 3216 3844 3400 
Q 4144 3584 4550 3584 
Q 5097 3584 5394 3201 
Q 5691 2819 5691 2113 
L 5691 0 
L 5113 0 
L 5113 2094 
Q 5113 2597 4934 2840 
Q 4756 3084 4391 3084 
Q 3944 3084 3684 2787 
Q 3425 2491 3425 1978 
L 3425 0 
L 2847 0 
L 2847 2094 
Q 2847 2600 2669 2842 
Q 2491 3084 2119 3084 
Q 1678 3084 1418 2786 
Q 1159 2488 1159 1978 
L 1159 0 
L 581 0 
L 581 3500 
L 1159 3500 
L 1159 2956 
Q 1356 3278 1631 3431 
Q 1906 3584 2284 3584 
Q 2666 3584 2933 3390 
Q 3200 3197 3328 2828 
z
" transform="scale(0.015625)"/>
       </defs>
       <use xlink:href="#DejaVuSans-53"/>
       <use xlink:href="#DejaVuSans-65" x="63.476562"/>
       <use xlink:href="#DejaVuSans-70" x="125"/>
       <use xlink:href="#DejaVuSans-74" x="188.476562"/>
       <use xlink:href="#DejaVuSans-65" x="227.685547"/>
       <use xlink:href="#DejaVuSans-6d" x="289.208984"/>
       <use xlink:href="#DejaVuSans-62" x="386.621094"/>
       <use xlink:href="#DejaVuSans-65" x="450.097656"/>
       <use xlink:href="#DejaVuSans-72" x="511.621094"/>
       <use xlink:href="#DejaVuSans-20" x="552.734375"/>
       <use xlink:href="#DejaVuSans-32" x="584.521484"/>
       <use xlink:href="#DejaVuSans-30" x="648.144531"/>
       <use xlink:href="#DejaVuSans-31" x="711.767578"/>
       <use xlink:href="#DejaVuSans-39" x="775.390625"/>
      </g>
     </g>
    </g>
    <g id="xtick_10">
     <g id="line2d_10">
      <g>
       <use xlink:href="#m3072073bab" x="145.762216" y="243.938" style="stroke: #000000; stroke-width: 0.8"/>
      </g>
     </g>
     <g id="text_10">
      <!-- October 2019 -->
      <g transform="translate(148.521591 319.588)rotate(-90)scale(0.1 -0.1)">
       <defs>
        <path id="DejaVuSans-4f" d="M 2522 4238 
Q 1834 4238 1429 3725 
Q 1025 3213 1025 2328 
Q 1025 1447 1429 934 
Q 1834 422 2522 422 
Q 3209 422 3611 934 
Q 4013 1447 4013 2328 
Q 4013 3213 3611 3725 
Q 3209 4238 2522 4238 
z
M 2522 4750 
Q 3503 4750 4090 4092 
Q 4678 3434 4678 2328 
Q 4678 1225 4090 567 
Q 3503 -91 2522 -91 
Q 1538 -91 948 565 
Q 359 1222 359 2328 
Q 359 3434 948 4092 
Q 1538 4750 2522 4750 
z
" transform="scale(0.015625)"/>
        <path id="DejaVuSans-6f" d="M 1959 3097 
Q 1497 3097 1228 2736 
Q 959 2375 959 1747 
Q 959 1119 1226 758 
Q 1494 397 1959 397 
Q 2419 397 2687 759 
Q 2956 1122 2956 1747 
Q 2956 2369 2687 2733 
Q 2419 3097 1959 3097 
z
M 1959 3584 
Q 2709 3584 3137 3096 
Q 3566 2609 3566 1747 
Q 3566 888 3137 398 
Q 2709 -91 1959 -91 
Q 1206 -91 779 398 
Q 353 888 353 1747 
Q 353 2609 779 3096 
Q 1206 3584 1959 3584 
z
" transform="scale(0.015625)"/>
       </defs>
       <use xlink:href="#DejaVuSans-4f"/>
       <use xlink:href="#DejaVuSans-63" x="78.710938"/>
       <use xlink:href="#DejaVuSans-74" x="133.691406"/>
       <use xlink:href="#DejaVuSans-6f" x="172.900391"/>
       <use xlink:href="#DejaVuSans-62" x="234.082031"/>
       <use xlink:href="#DejaVuSans-65" x="297.558594"/>
       <use xlink:href="#DejaVuSans-72" x="359.082031"/>
       <use xlink:href="#DejaVuSans-20" x="400.195312"/>
       <use xlink:href="#DejaVuSans-32" x="431.982422"/>
       <use xlink:href="#DejaVuSans-30" x="495.605469"/>
       <use xlink:href="#DejaVuSans-31" x="559.228516"/>
       <use xlink:href="#DejaVuSans-39" x="622.851562"/>
      </g>
     </g>
    </g>
    <g id="xtick_11">
     <g id="line2d_11">
      <g>
       <use xlink:href="#m3072073bab" x="154.898013" y="243.938" style="stroke: #000000; stroke-width: 0.8"/>
      </g>
     </g>
     <g id="text_11">
      <!-- November 2019 -->
      <g transform="translate(157.657388 331.591125)rotate(-90)scale(0.1 -0.1)">
       <defs>
        <path id="DejaVuSans-4e" d="M 628 4666 
L 1478 4666 
L 3547 763 
L 3547 4666 
L 4159 4666 
L 4159 0 
L 3309 0 
L 1241 3903 
L 1241 0 
L 628 0 
L 628 4666 
z
" transform="scale(0.015625)"/>
        <path id="DejaVuSans-76" d="M 191 3500 
L 800 3500 
L 1894 563 
L 2988 3500 
L 3597 3500 
L 2284 0 
L 1503 0 
L 191 3500 
z
" transform="scale(0.015625)"/>
       </defs>
       <use xlink:href="#DejaVuSans-4e"/>
       <use xlink:href="#DejaVuSans-6f" x="74.804688"/>
       <use xlink:href="#DejaVuSans-76" x="135.986328"/>
       <use xlink:href="#DejaVuSans-65" x="195.166016"/>
       <use xlink:href="#DejaVuSans-6d" x="256.689453"/>
       <use xlink:href="#DejaVuSans-62" x="354.101562"/>
       <use xlink:href="#DejaVuSans-65" x="417.578125"/>
       <use xlink:href="#DejaVuSans-72" x="479.101562"/>
       <use xlink:href="#DejaVuSans-20" x="520.214844"/>
       <use xlink:href="#DejaVuSans-32" x="552.001953"/>
       <use xlink:href="#DejaVuSans-30" x="615.625"/>
       <use xlink:href="#DejaVuSans-31" x="679.248047"/>
       <use xlink:href="#DejaVuSans-39" x="742.871094"/>
      </g>
     </g>
    </g>
    <g id="xtick_12">
     <g id="line2d_12">
      <g>
       <use xlink:href="#m3072073bab" x="164.033811" y="243.938" style="stroke: #000000; stroke-width: 0.8"/>
      </g>
     </g>
     <g id="text_12">
      <!-- December 2019 -->
      <g transform="translate(166.793186 331.423937)rotate(-90)scale(0.1 -0.1)">
       <defs>
        <path id="DejaVuSans-44" d="M 1259 4147 
L 1259 519 
L 2022 519 
Q 2988 519 3436 956 
Q 3884 1394 3884 2338 
Q 3884 3275 3436 3711 
Q 2988 4147 2022 4147 
L 1259 4147 
z
M 628 4666 
L 1925 4666 
Q 3281 4666 3915 4102 
Q 4550 3538 4550 2338 
Q 4550 1131 3912 565 
Q 3275 0 1925 0 
L 628 0 
L 628 4666 
z
" transform="scale(0.015625)"/>
       </defs>
       <use xlink:href="#DejaVuSans-44"/>
       <use xlink:href="#DejaVuSans-65" x="77.001953"/>
       <use xlink:href="#DejaVuSans-63" x="138.525391"/>
       <use xlink:href="#DejaVuSans-65" x="193.505859"/>
       <use xlink:href="#DejaVuSans-6d" x="255.029297"/>
       <use xlink:href="#DejaVuSans-62" x="352.441406"/>
       <use xlink:href="#DejaVuSans-65" x="415.917969"/>
       <use xlink:href="#DejaVuSans-72" x="477.441406"/>
       <use xlink:href="#DejaVuSans-20" x="518.554688"/>
       <use xlink:href="#DejaVuSans-32" x="550.341797"/>
       <use xlink:href="#DejaVuSans-30" x="613.964844"/>
       <use xlink:href="#DejaVuSans-31" x="677.587891"/>
       <use xlink:href="#DejaVuSans-39" x="741.210938"/>
      </g>
     </g>
    </g>
    <g id="xtick_13">
     <g id="line2d_13">
      <g>
       <use xlink:href="#m3072073bab" x="173.169608" y="243.938" style="stroke: #000000; stroke-width: 0.8"/>
      </g>
     </g>
     <g id="text_13">
      <!-- January 2020 -->
      <g transform="translate(175.928983 317.477062)rotate(-90)scale(0.1 -0.1)">
       <use xlink:href="#DejaVuSans-4a"/>
       <use xlink:href="#DejaVuSans-61" x="29.492188"/>
       <use xlink:href="#DejaVuSans-6e" x="90.771484"/>
       <use xlink:href="#DejaVuSans-75" x="154.150391"/>
       <use xlink:href="#DejaVuSans-61" x="217.529297"/>
       <use xlink:href="#DejaVuSans-72" x="278.808594"/>
       <use xlink:href="#DejaVuSans-79" x="319.921875"/>
       <use xlink:href="#DejaVuSans-20" x="379.101562"/>
       <use xlink:href="#DejaVuSans-32" x="410.888672"/>
       <use xlink:href="#DejaVuSans-30" x="474.511719"/>
       <use xlink:href="#DejaVuSans-32" x="538.134766"/>
       <use xlink:href="#DejaVuSans-30" x="601.757812"/>
      </g>
     </g>
    </g>
    <g id="xtick_14">
     <g id="line2d_14">
      <g>
       <use xlink:href="#m3072073bab" x="182.305405" y="243.938" style="stroke: #000000; stroke-width: 0.8"/>
      </g>
     </g>
     <g id="text_14">
      <!-- February 2020 -->
      <g transform="translate(185.06478 323.8755)rotate(-90)scale(0.1 -0.1)">
       <use xlink:href="#DejaVuSans-46"/>
       <use xlink:href="#DejaVuSans-65" x="52.019531"/>
       <use xlink:href="#DejaVuSans-62" x="113.542969"/>
       <use xlink:href="#DejaVuSans-72" x="177.019531"/>
       <use xlink:href="#DejaVuSans-75" x="218.132812"/>
       <use xlink:href="#DejaVuSans-61" x="281.511719"/>
       <use xlink:href="#DejaVuSans-72" x="342.791016"/>
       <use xlink:href="#DejaVuSans-79" x="383.904297"/>
       <use xlink:href="#DejaVuSans-20" x="443.083984"/>
       <use xlink:href="#DejaVuSans-32" x="474.871094"/>
       <use xlink:href="#DejaVuSans-30" x="538.494141"/>
       <use xlink:href="#DejaVuSans-32" x="602.117188"/>
       <use xlink:href="#DejaVuSans-30" x="665.740234"/>
      </g>
     </g>
    </g>
    <g id="xtick_15">
     <g id="line2d_15">
      <g>
       <use xlink:href="#m3072073bab" x="191.441203" y="243.938" style="stroke: #000000; stroke-width: 0.8"/>
      </g>
     </g>
     <g id="text_15">
      <!-- March 2020 -->
      <g transform="translate(194.200578 310.04425)rotate(-90)scale(0.1 -0.1)">
       <use xlink:href="#DejaVuSans-4d"/>
       <use xlink:href="#DejaVuSans-61" x="86.279297"/>
       <use xlink:href="#DejaVuSans-72" x="147.558594"/>
       <use xlink:href="#DejaVuSans-63" x="186.421875"/>
       <use xlink:href="#DejaVuSans-68" x="241.402344"/>
       <use xlink:href="#DejaVuSans-20" x="304.78125"/>
       <use xlink:href="#DejaVuSans-32" x="336.568359"/>
       <use xlink:href="#DejaVuSans-30" x="400.191406"/>
       <use xlink:href="#DejaVuSans-32" x="463.814453"/>
       <use xlink:href="#DejaVuSans-30" x="527.4375"/>
      </g>
     </g>
    </g>
    <g id="xtick_16">
     <g id="line2d_16">
      <g>
       <use xlink:href="#m3072073bab" x="200.577" y="243.938" style="stroke: #000000; stroke-width: 0.8"/>
      </g>
     </g>
     <g id="text_16">
      <!-- April 2020 -->
      <g transform="translate(203.336375 302.422375)rotate(-90)scale(0.1 -0.1)">
       <use xlink:href="#DejaVuSans-41"/>
       <use xlink:href="#DejaVuSans-70" x="68.408203"/>
       <use xlink:href="#DejaVuSans-72" x="131.884766"/>
       <use xlink:href="#DejaVuSans-69" x="172.998047"/>
       <use xlink:href="#DejaVuSans-6c" x="200.78125"/>
       <use xlink:href="#DejaVuSans-20" x="228.564453"/>
       <use xlink:href="#DejaVuSans-32" x="260.351562"/>
       <use xlink:href="#DejaVuSans-30" x="323.974609"/>
       <use xlink:href="#DejaVuSans-32" x="387.597656"/>
       <use xlink:href="#DejaVuSans-30" x="451.220703"/>
      </g>
     </g>
    </g>
    <g id="xtick_17">
     <g id="line2d_17">
      <g>
       <use xlink:href="#m3072073bab" x="209.712797" y="243.938" style="stroke: #000000; stroke-width: 0.8"/>
      </g>
     </g>
     <g id="text_17">
      <!-- May 2020 -->
      <g transform="translate(212.472172 300.241125)rotate(-90)scale(0.1 -0.1)">
       <use xlink:href="#DejaVuSans-4d"/>
       <use xlink:href="#DejaVuSans-61" x="86.279297"/>
       <use xlink:href="#DejaVuSans-79" x="147.558594"/>
       <use xlink:href="#DejaVuSans-20" x="206.738281"/>
       <use xlink:href="#DejaVuSans-32" x="238.525391"/>
       <use xlink:href="#DejaVuSans-30" x="302.148438"/>
       <use xlink:href="#DejaVuSans-32" x="365.771484"/>
       <use xlink:href="#DejaVuSans-30" x="429.394531"/>
      </g>
     </g>
    </g>
    <g id="xtick_18">
     <g id="line2d_18">
      <g>
       <use xlink:href="#m3072073bab" x="218.848595" y="243.938" style="stroke: #000000; stroke-width: 0.8"/>
      </g>
     </g>
     <g id="text_18">
      <!-- June 2020 -->
      <g transform="translate(221.60797 301.34425)rotate(-90)scale(0.1 -0.1)">
       <use xlink:href="#DejaVuSans-4a"/>
       <use xlink:href="#DejaVuSans-75" x="29.492188"/>
       <use xlink:href="#DejaVuSans-6e" x="92.871094"/>
       <use xlink:href="#DejaVuSans-65" x="156.25"/>
       <use xlink:href="#DejaVuSans-20" x="217.773438"/>
       <use xlink:href="#DejaVuSans-32" x="249.560547"/>
       <use xlink:href="#DejaVuSans-30" x="313.183594"/>
       <use xlink:href="#DejaVuSans-32" x="376.806641"/>
       <use xlink:href="#DejaVuSans-30" x="440.429688"/>
      </g>
     </g>
    </g>
    <g id="xtick_19">
     <g id="line2d_19">
      <g>
       <use xlink:href="#m3072073bab" x="227.984392" y="243.938" style="stroke: #000000; stroke-width: 0.8"/>
      </g>
     </g>
     <g id="text_19">
      <!-- July 2020 -->
      <g transform="translate(230.743767 297.5505)rotate(-90)scale(0.1 -0.1)">
       <use xlink:href="#DejaVuSans-4a"/>
       <use xlink:href="#DejaVuSans-75" x="29.492188"/>
       <use xlink:href="#DejaVuSans-6c" x="92.871094"/>
       <use xlink:href="#DejaVuSans-79" x="120.654297"/>
       <use xlink:href="#DejaVuSans-20" x="179.833984"/>
       <use xlink:href="#DejaVuSans-32" x="211.621094"/>
       <use xlink:href="#DejaVuSans-30" x="275.244141"/>
       <use xlink:href="#DejaVuSans-32" x="338.867188"/>
       <use xlink:href="#DejaVuSans-30" x="402.490234"/>
      </g>
     </g>
    </g>
    <g id="xtick_20">
     <g id="line2d_20">
      <g>
       <use xlink:href="#m3072073bab" x="237.120189" y="243.938" style="stroke: #000000; stroke-width: 0.8"/>
      </g>
     </g>
     <g id="text_20">
      <!-- August 2020 -->
      <g transform="translate(239.879564 314.559875)rotate(-90)scale(0.1 -0.1)">
       <use xlink:href="#DejaVuSans-41"/>
       <use xlink:href="#DejaVuSans-75" x="68.408203"/>
       <use xlink:href="#DejaVuSans-67" x="131.787109"/>
       <use xlink:href="#DejaVuSans-75" x="195.263672"/>
       <use xlink:href="#DejaVuSans-73" x="258.642578"/>
       <use xlink:href="#DejaVuSans-74" x="310.742188"/>
       <use xlink:href="#DejaVuSans-20" x="349.951172"/>
       <use xlink:href="#DejaVuSans-32" x="381.738281"/>
       <use xlink:href="#DejaVuSans-30" x="445.361328"/>
       <use xlink:href="#DejaVuSans-32" x="508.984375"/>
       <use xlink:href="#DejaVuSans-30" x="572.607422"/>
      </g>
     </g>
    </g>
    <g id="xtick_21">
     <g id="line2d_21">
      <g>
       <use xlink:href="#m3072073bab" x="246.255987" y="243.938" style="stroke: #000000; stroke-width: 0.8"/>
      </g>
     </g>
     <g id="text_21">
      <!-- September 2020 -->
      <g transform="translate(249.015362 334.842687)rotate(-90)scale(0.1 -0.1)">
       <use xlink:href="#DejaVuSans-53"/>
       <use xlink:href="#DejaVuSans-65" x="63.476562"/>
       <use xlink:href="#DejaVuSans-70" x="125"/>
       <use xlink:href="#DejaVuSans-74" x="188.476562"/>
       <use xlink:href="#DejaVuSans-65" x="227.685547"/>
       <use xlink:href="#DejaVuSans-6d" x="289.208984"/>
       <use xlink:href="#DejaVuSans-62" x="386.621094"/>
       <use xlink:href="#DejaVuSans-65" x="450.097656"/>
       <use xlink:href="#DejaVuSans-72" x="511.621094"/>
       <use xlink:href="#DejaVuSans-20" x="552.734375"/>
       <use xlink:href="#DejaVuSans-32" x="584.521484"/>
       <use xlink:href="#DejaVuSans-30" x="648.144531"/>
       <use xlink:href="#DejaVuSans-32" x="711.767578"/>
       <use xlink:href="#DejaVuSans-30" x="775.390625"/>
      </g>
     </g>
    </g>
    <g id="xtick_22">
     <g id="line2d_22">
      <g>
       <use xlink:href="#m3072073bab" x="255.391784" y="243.938" style="stroke: #000000; stroke-width: 0.8"/>
      </g>
     </g>
     <g id="text_22">
      <!-- October 2020 -->
      <g transform="translate(258.151159 319.588)rotate(-90)scale(0.1 -0.1)">
       <use xlink:href="#DejaVuSans-4f"/>
       <use xlink:href="#DejaVuSans-63" x="78.710938"/>
       <use xlink:href="#DejaVuSans-74" x="133.691406"/>
       <use xlink:href="#DejaVuSans-6f" x="172.900391"/>
       <use xlink:href="#DejaVuSans-62" x="234.082031"/>
       <use xlink:href="#DejaVuSans-65" x="297.558594"/>
       <use xlink:href="#DejaVuSans-72" x="359.082031"/>
       <use xlink:href="#DejaVuSans-20" x="400.195312"/>
       <use xlink:href="#DejaVuSans-32" x="431.982422"/>
       <use xlink:href="#DejaVuSans-30" x="495.605469"/>
       <use xlink:href="#DejaVuSans-32" x="559.228516"/>
       <use xlink:href="#DejaVuSans-30" x="622.851562"/>
      </g>
     </g>
    </g>
    <g id="xtick_23">
     <g id="line2d_23">
      <g>
       <use xlink:href="#m3072073bab" x="264.527581" y="243.938" style="stroke: #000000; stroke-width: 0.8"/>
      </g>
     </g>
     <g id="text_23">
      <!-- November 2020 -->
      <g transform="translate(267.286956 331.591125)rotate(-90)scale(0.1 -0.1)">
       <use xlink:href="#DejaVuSans-4e"/>
       <use xlink:href="#DejaVuSans-6f" x="74.804688"/>
       <use xlink:href="#DejaVuSans-76" x="135.986328"/>
       <use xlink:href="#DejaVuSans-65" x="195.166016"/>
       <use xlink:href="#DejaVuSans-6d" x="256.689453"/>
       <use xlink:href="#DejaVuSans-62" x="354.101562"/>
       <use xlink:href="#DejaVuSans-65" x="417.578125"/>
       <use xlink:href="#DejaVuSans-72" x="479.101562"/>
       <use xlink:href="#DejaVuSans-20" x="520.214844"/>
       <use xlink:href="#DejaVuSans-32" x="552.001953"/>
       <use xlink:href="#DejaVuSans-30" x="615.625"/>
       <use xlink:href="#DejaVuSans-32" x="679.248047"/>
       <use xlink:href="#DejaVuSans-30" x="742.871094"/>
      </g>
     </g>
    </g>
    <g id="xtick_24">
     <g id="line2d_24">
      <g>
       <use xlink:href="#m3072073bab" x="273.663379" y="243.938" style="stroke: #000000; stroke-width: 0.8"/>
      </g>
     </g>
     <g id="text_24">
      <!-- December 2020 -->
      <g transform="translate(276.422754 331.423937)rotate(-90)scale(0.1 -0.1)">
       <use xlink:href="#DejaVuSans-44"/>
       <use xlink:href="#DejaVuSans-65" x="77.001953"/>
       <use xlink:href="#DejaVuSans-63" x="138.525391"/>
       <use xlink:href="#DejaVuSans-65" x="193.505859"/>
       <use xlink:href="#DejaVuSans-6d" x="255.029297"/>
       <use xlink:href="#DejaVuSans-62" x="352.441406"/>
       <use xlink:href="#DejaVuSans-65" x="415.917969"/>
       <use xlink:href="#DejaVuSans-72" x="477.441406"/>
       <use xlink:href="#DejaVuSans-20" x="518.554688"/>
       <use xlink:href="#DejaVuSans-32" x="550.341797"/>
       <use xlink:href="#DejaVuSans-30" x="613.964844"/>
       <use xlink:href="#DejaVuSans-32" x="677.587891"/>
       <use xlink:href="#DejaVuSans-30" x="741.210938"/>
      </g>
     </g>
    </g>
    <g id="xtick_25">
     <g id="line2d_25">
      <g>
       <use xlink:href="#m3072073bab" x="282.799176" y="243.938" style="stroke: #000000; stroke-width: 0.8"/>
      </g>
     </g>
     <g id="text_25">
      <!-- January 2021 -->
      <g transform="translate(285.558551 317.477062)rotate(-90)scale(0.1 -0.1)">
       <use xlink:href="#DejaVuSans-4a"/>
       <use xlink:href="#DejaVuSans-61" x="29.492188"/>
       <use xlink:href="#DejaVuSans-6e" x="90.771484"/>
       <use xlink:href="#DejaVuSans-75" x="154.150391"/>
       <use xlink:href="#DejaVuSans-61" x="217.529297"/>
       <use xlink:href="#DejaVuSans-72" x="278.808594"/>
       <use xlink:href="#DejaVuSans-79" x="319.921875"/>
       <use xlink:href="#DejaVuSans-20" x="379.101562"/>
       <use xlink:href="#DejaVuSans-32" x="410.888672"/>
       <use xlink:href="#DejaVuSans-30" x="474.511719"/>
       <use xlink:href="#DejaVuSans-32" x="538.134766"/>
       <use xlink:href="#DejaVuSans-31" x="601.757812"/>
      </g>
     </g>
    </g>
    <g id="xtick_26">
     <g id="line2d_26">
      <g>
       <use xlink:href="#m3072073bab" x="291.934973" y="243.938" style="stroke: #000000; stroke-width: 0.8"/>
      </g>
     </g>
     <g id="text_26">
      <!-- February 2021 -->
      <g transform="translate(294.694348 323.8755)rotate(-90)scale(0.1 -0.1)">
       <use xlink:href="#DejaVuSans-46"/>
       <use xlink:href="#DejaVuSans-65" x="52.019531"/>
       <use xlink:href="#DejaVuSans-62" x="113.542969"/>
       <use xlink:href="#DejaVuSans-72" x="177.019531"/>
       <use xlink:href="#DejaVuSans-75" x="218.132812"/>
       <use xlink:href="#DejaVuSans-61" x="281.511719"/>
       <use xlink:href="#DejaVuSans-72" x="342.791016"/>
       <use xlink:href="#DejaVuSans-79" x="383.904297"/>
       <use xlink:href="#DejaVuSans-20" x="443.083984"/>
       <use xlink:href="#DejaVuSans-32" x="474.871094"/>
       <use xlink:href="#DejaVuSans-30" x="538.494141"/>
       <use xlink:href="#DejaVuSans-32" x="602.117188"/>
       <use xlink:href="#DejaVuSans-31" x="665.740234"/>
      </g>
     </g>
    </g>
    <g id="xtick_27">
     <g id="line2d_27">
      <g>
       <use xlink:href="#m3072073bab" x="301.07077" y="243.938" style="stroke: #000000; stroke-width: 0.8"/>
      </g>
     </g>
     <g id="text_27">
      <!-- March 2021 -->
      <g transform="translate(303.830145 310.04425)rotate(-90)scale(0.1 -0.1)">
       <use xlink:href="#DejaVuSans-4d"/>
       <use xlink:href="#DejaVuSans-61" x="86.279297"/>
       <use xlink:href="#DejaVuSans-72" x="147.558594"/>
       <use xlink:href="#DejaVuSans-63" x="186.421875"/>
       <use xlink:href="#DejaVuSans-68" x="241.402344"/>
       <use xlink:href="#DejaVuSans-20" x="304.78125"/>
       <use xlink:href="#DejaVuSans-32" x="336.568359"/>
       <use xlink:href="#DejaVuSans-30" x="400.191406"/>
       <use xlink:href="#DejaVuSans-32" x="463.814453"/>
       <use xlink:href="#DejaVuSans-31" x="527.4375"/>
      </g>
     </g>
    </g>
    <g id="xtick_28">
     <g id="line2d_28">
      <g>
       <use xlink:href="#m3072073bab" x="310.206568" y="243.938" style="stroke: #000000; stroke-width: 0.8"/>
      </g>
     </g>
     <g id="text_28">
      <!-- April 2021 -->
      <g transform="translate(312.965943 302.422375)rotate(-90)scale(0.1 -0.1)">
       <use xlink:href="#DejaVuSans-41"/>
       <use xlink:href="#DejaVuSans-70" x="68.408203"/>
       <use xlink:href="#DejaVuSans-72" x="131.884766"/>
       <use xlink:href="#DejaVuSans-69" x="172.998047"/>
       <use xlink:href="#DejaVuSans-6c" x="200.78125"/>
       <use xlink:href="#DejaVuSans-20" x="228.564453"/>
       <use xlink:href="#DejaVuSans-32" x="260.351562"/>
       <use xlink:href="#DejaVuSans-30" x="323.974609"/>
       <use xlink:href="#DejaVuSans-32" x="387.597656"/>
       <use xlink:href="#DejaVuSans-31" x="451.220703"/>
      </g>
     </g>
    </g>
    <g id="xtick_29">
     <g id="line2d_29">
      <g>
       <use xlink:href="#m3072073bab" x="319.342365" y="243.938" style="stroke: #000000; stroke-width: 0.8"/>
      </g>
     </g>
     <g id="text_29">
      <!-- May 2021 -->
      <g transform="translate(322.10174 300.241125)rotate(-90)scale(0.1 -0.1)">
       <use xlink:href="#DejaVuSans-4d"/>
       <use xlink:href="#DejaVuSans-61" x="86.279297"/>
       <use xlink:href="#DejaVuSans-79" x="147.558594"/>
       <use xlink:href="#DejaVuSans-20" x="206.738281"/>
       <use xlink:href="#DejaVuSans-32" x="238.525391"/>
       <use xlink:href="#DejaVuSans-30" x="302.148438"/>
       <use xlink:href="#DejaVuSans-32" x="365.771484"/>
       <use xlink:href="#DejaVuSans-31" x="429.394531"/>
      </g>
     </g>
    </g>
    <g id="xtick_30">
     <g id="line2d_30">
      <g>
       <use xlink:href="#m3072073bab" x="328.478162" y="243.938" style="stroke: #000000; stroke-width: 0.8"/>
      </g>
     </g>
     <g id="text_30">
      <!-- June 2021 -->
      <g transform="translate(331.237537 301.34425)rotate(-90)scale(0.1 -0.1)">
       <use xlink:href="#DejaVuSans-4a"/>
       <use xlink:href="#DejaVuSans-75" x="29.492188"/>
       <use xlink:href="#DejaVuSans-6e" x="92.871094"/>
       <use xlink:href="#DejaVuSans-65" x="156.25"/>
       <use xlink:href="#DejaVuSans-20" x="217.773438"/>
       <use xlink:href="#DejaVuSans-32" x="249.560547"/>
       <use xlink:href="#DejaVuSans-30" x="313.183594"/>
       <use xlink:href="#DejaVuSans-32" x="376.806641"/>
       <use xlink:href="#DejaVuSans-31" x="440.429688"/>
      </g>
     </g>
    </g>
    <g id="xtick_31">
     <g id="line2d_31">
      <g>
       <use xlink:href="#m3072073bab" x="337.61396" y="243.938" style="stroke: #000000; stroke-width: 0.8"/>
      </g>
     </g>
     <g id="text_31">
      <!-- July 2021 -->
      <g transform="translate(340.373335 297.5505)rotate(-90)scale(0.1 -0.1)">
       <use xlink:href="#DejaVuSans-4a"/>
       <use xlink:href="#DejaVuSans-75" x="29.492188"/>
       <use xlink:href="#DejaVuSans-6c" x="92.871094"/>
       <use xlink:href="#DejaVuSans-79" x="120.654297"/>
       <use xlink:href="#DejaVuSans-20" x="179.833984"/>
       <use xlink:href="#DejaVuSans-32" x="211.621094"/>
       <use xlink:href="#DejaVuSans-30" x="275.244141"/>
       <use xlink:href="#DejaVuSans-32" x="338.867188"/>
       <use xlink:href="#DejaVuSans-31" x="402.490234"/>
      </g>
     </g>
    </g>
   </g>
   <g id="matplotlib.axis_2">
    <g id="ytick_1">
     <g id="line2d_32">
      <defs>
       <path id="m1a422491f3" d="M 0 0 
L -3.5 0 
" style="stroke: #000000; stroke-width: 0.8"/>
      </defs>
      <g>
       <use xlink:href="#m1a422491f3" x="47.324" y="243.938" style="stroke: #000000; stroke-width: 0.8"/>
      </g>
     </g>
     <g id="text_32">
      <!-- 0.0 -->
      <g transform="translate(24.420875 247.737219)scale(0.1 -0.1)">
       <defs>
        <path id="DejaVuSans-2e" d="M 684 794 
L 1344 794 
L 1344 0 
L 684 0 
L 684 794 
z
" transform="scale(0.015625)"/>
       </defs>
       <use xlink:href="#DejaVuSans-30"/>
       <use xlink:href="#DejaVuSans-2e" x="63.623047"/>
       <use xlink:href="#DejaVuSans-30" x="95.410156"/>
      </g>
     </g>
    </g>
    <g id="ytick_2">
     <g id="line2d_33">
      <g>
       <use xlink:href="#m1a422491f3" x="47.324" y="200.353433" style="stroke: #000000; stroke-width: 0.8"/>
      </g>
     </g>
     <g id="text_33">
      <!-- 0.2 -->
      <g transform="translate(24.420875 204.152652)scale(0.1 -0.1)">
       <use xlink:href="#DejaVuSans-30"/>
       <use xlink:href="#DejaVuSans-2e" x="63.623047"/>
       <use xlink:href="#DejaVuSans-32" x="95.410156"/>
      </g>
     </g>
    </g>
    <g id="ytick_3">
     <g id="line2d_34">
      <g>
       <use xlink:href="#m1a422491f3" x="47.324" y="156.768866" style="stroke: #000000; stroke-width: 0.8"/>
      </g>
     </g>
     <g id="text_34">
      <!-- 0.4 -->
      <g transform="translate(24.420875 160.568085)scale(0.1 -0.1)">
       <defs>
        <path id="DejaVuSans-34" d="M 2419 4116 
L 825 1625 
L 2419 1625 
L 2419 4116 
z
M 2253 4666 
L 3047 4666 
L 3047 1625 
L 3713 1625 
L 3713 1100 
L 3047 1100 
L 3047 0 
L 2419 0 
L 2419 1100 
L 313 1100 
L 313 1709 
L 2253 4666 
z
" transform="scale(0.015625)"/>
       </defs>
       <use xlink:href="#DejaVuSans-30"/>
       <use xlink:href="#DejaVuSans-2e" x="63.623047"/>
       <use xlink:href="#DejaVuSans-34" x="95.410156"/>
      </g>
     </g>
    </g>
    <g id="ytick_4">
     <g id="line2d_35">
      <g>
       <use xlink:href="#m1a422491f3" x="47.324" y="113.184299" style="stroke: #000000; stroke-width: 0.8"/>
      </g>
     </g>
     <g id="text_35">
      <!-- 0.6 -->
      <g transform="translate(24.420875 116.983518)scale(0.1 -0.1)">
       <defs>
        <path id="DejaVuSans-36" d="M 2113 2584 
Q 1688 2584 1439 2293 
Q 1191 2003 1191 1497 
Q 1191 994 1439 701 
Q 1688 409 2113 409 
Q 2538 409 2786 701 
Q 3034 994 3034 1497 
Q 3034 2003 2786 2293 
Q 2538 2584 2113 2584 
z
M 3366 4563 
L 3366 3988 
Q 3128 4100 2886 4159 
Q 2644 4219 2406 4219 
Q 1781 4219 1451 3797 
Q 1122 3375 1075 2522 
Q 1259 2794 1537 2939 
Q 1816 3084 2150 3084 
Q 2853 3084 3261 2657 
Q 3669 2231 3669 1497 
Q 3669 778 3244 343 
Q 2819 -91 2113 -91 
Q 1303 -91 875 529 
Q 447 1150 447 2328 
Q 447 3434 972 4092 
Q 1497 4750 2381 4750 
Q 2619 4750 2861 4703 
Q 3103 4656 3366 4563 
z
" transform="scale(0.015625)"/>
       </defs>
       <use xlink:href="#DejaVuSans-30"/>
       <use xlink:href="#DejaVuSans-2e" x="63.623047"/>
       <use xlink:href="#DejaVuSans-36" x="95.410156"/>
      </g>
     </g>
    </g>
    <g id="ytick_5">
     <g id="line2d_36">
      <g>
       <use xlink:href="#m1a422491f3" x="47.324" y="69.599732" style="stroke: #000000; stroke-width: 0.8"/>
      </g>
     </g>
     <g id="text_36">
      <!-- 0.8 -->
      <g transform="translate(24.420875 73.398951)scale(0.1 -0.1)">
       <defs>
        <path id="DejaVuSans-38" d="M 2034 2216 
Q 1584 2216 1326 1975 
Q 1069 1734 1069 1313 
Q 1069 891 1326 650 
Q 1584 409 2034 409 
Q 2484 409 2743 651 
Q 3003 894 3003 1313 
Q 3003 1734 2745 1975 
Q 2488 2216 2034 2216 
z
M 1403 2484 
Q 997 2584 770 2862 
Q 544 3141 544 3541 
Q 544 4100 942 4425 
Q 1341 4750 2034 4750 
Q 2731 4750 3128 4425 
Q 3525 4100 3525 3541 
Q 3525 3141 3298 2862 
Q 3072 2584 2669 2484 
Q 3125 2378 3379 2068 
Q 3634 1759 3634 1313 
Q 3634 634 3220 271 
Q 2806 -91 2034 -91 
Q 1263 -91 848 271 
Q 434 634 434 1313 
Q 434 1759 690 2068 
Q 947 2378 1403 2484 
z
M 1172 3481 
Q 1172 3119 1398 2916 
Q 1625 2713 2034 2713 
Q 2441 2713 2670 2916 
Q 2900 3119 2900 3481 
Q 2900 3844 2670 4047 
Q 2441 4250 2034 4250 
Q 1625 4250 1398 4047 
Q 1172 3844 1172 3481 
z
" transform="scale(0.015625)"/>
       </defs>
       <use xlink:href="#DejaVuSans-30"/>
       <use xlink:href="#DejaVuSans-2e" x="63.623047"/>
       <use xlink:href="#DejaVuSans-38" x="95.410156"/>
      </g>
     </g>
    </g>
    <g id="text_37">
     <!-- Payment share -->
     <g transform="translate(18.341187 172.312156)rotate(-90)scale(0.1 -0.1)">
      <defs>
       <path id="DejaVuSans-50" d="M 1259 4147 
L 1259 2394 
L 2053 2394 
Q 2494 2394 2734 2622 
Q 2975 2850 2975 3272 
Q 2975 3691 2734 3919 
Q 2494 4147 2053 4147 
L 1259 4147 
z
M 628 4666 
L 2053 4666 
Q 2838 4666 3239 4311 
Q 3641 3956 3641 3272 
Q 3641 2581 3239 2228 
Q 2838 1875 2053 1875 
L 1259 1875 
L 1259 0 
L 628 0 
L 628 4666 
z
" transform="scale(0.015625)"/>
      </defs>
      <use xlink:href="#DejaVuSans-50"/>
      <use xlink:href="#DejaVuSans-61" x="55.802734"/>
      <use xlink:href="#DejaVuSans-79" x="117.082031"/>
      <use xlink:href="#DejaVuSans-6d" x="176.261719"/>
      <use xlink:href="#DejaVuSans-65" x="273.673828"/>
      <use xlink:href="#DejaVuSans-6e" x="335.197266"/>
      <use xlink:href="#DejaVuSans-74" x="398.576172"/>
      <use xlink:href="#DejaVuSans-20" x="437.785156"/>
      <use xlink:href="#DejaVuSans-73" x="469.572266"/>
      <use xlink:href="#DejaVuSans-68" x="521.671875"/>
      <use xlink:href="#DejaVuSans-61" x="585.050781"/>
      <use xlink:href="#DejaVuSans-72" x="646.330078"/>
      <use xlink:href="#DejaVuSans-65" x="685.193359"/>
     </g>
    </g>
   </g>
   <g id="patch_189">
    <path d="M 47.324 243.938 
L 47.324 26.016 
" style="fill: none; stroke: #000000; stroke-width: 0.8; stroke-linejoin: miter; stroke-linecap: square"/>
   </g>
   <g id="patch_190">
    <path d="M 353.83 243.938 
L 353.83 26.016 
" style="fill: none; stroke: #000000; stroke-width: 0.8; stroke-linejoin: miter; stroke-linecap: square"/>
   </g>
   <g id="patch_191">
    <path d="M 47.324 243.938 
L 353.83 243.938 
" style="fill: none; stroke: #000000; stroke-width: 0.8; stroke-linejoin: miter; stroke-linecap: square"/>
   </g>
   <g id="patch_192">
    <path d="M 47.324 26.016 
L 353.83 26.016 
" style="fill: none; stroke: #000000; stroke-width: 0.8; stroke-linejoin: miter; stroke-linecap: square"/>
   </g>
   <g id="text_38">
    <!-- Payment share by month -->
    <g transform="translate(125.127937 20.016)scale(0.12 -0.12)">
     <use xlink:href="#DejaVuSans-50"/>
     <use xlink:href="#DejaVuSans-61" x="55.802734"/>
     <use xlink:href="#DejaVuSans-79" x="117.082031"/>
     <use xlink:href="#DejaVuSans-6d" x="176.261719"/>
     <use xlink:href="#DejaVuSans-65" x="273.673828"/>
     <use xlink:href="#DejaVuSans-6e" x="335.197266"/>
     <use xlink:href="#DejaVuSans-74" x="398.576172"/>
     <use xlink:href="#DejaVuSans-20" x="437.785156"/>
     <use xlink:href="#DejaVuSans-73" x="469.572266"/>
     <use xlink:href="#DejaVuSans-68" x="521.671875"/>
     <use xlink:href="#DejaVuSans-61" x="585.050781"/>
     <use xlink:href="#DejaVuSans-72" x="646.330078"/>
     <use xlink:href="#DejaVuSans-65" x="685.193359"/>
     <use xlink:href="#DejaVuSans-20" x="746.716797"/>
     <use xlink:href="#DejaVuSans-62" x="778.503906"/>
     <use xlink:href="#DejaVuSans-79" x="841.980469"/>
     <use xlink:href="#DejaVuSans-20" x="901.160156"/>
     <use xlink:href="#DejaVuSans-6d" x="932.947266"/>
     <use xlink:href="#DejaVuSans-6f" x="1030.359375"/>
     <use xlink:href="#DejaVuSans-6e" x="1091.541016"/>
     <use xlink:href="#DejaVuSans-74" x="1154.919922"/>
     <use xlink:href="#DejaVuSans-68" x="1194.128906"/>
    </g>
   </g>
   <g id="legend_1">
    <g id="patch_193">
     <path d="M 360.83 180.511375 
L 447.987813 180.511375 
Q 449.987813 180.511375 449.987813 178.511375 
L 449.987813 91.442625 
Q 449.987813 89.442625 447.987813 89.442625 
L 360.83 89.442625 
Q 358.83 89.442625 358.83 91.442625 
L 358.83 178.511375 
Q 358.83 180.511375 360.83 180.511375 
z
" style="fill: #ffffff; opacity: 0.8; stroke: #cccccc; stroke-linejoin: miter"/>
    </g>
    <g id="patch_194">
     <path d="M 362.83 101.041063 
L 382.83 101.041063 
L 382.83 94.041063 
L 362.83 94.041063 
z
" style="fill: #1f77b4"/>
    </g>
    <g id="text_39">
     <!-- Credit card -->
     <g transform="translate(390.83 101.041063)scale(0.1 -0.1)">
      <defs>
       <path id="DejaVuSans-43" d="M 4122 4306 
L 4122 3641 
Q 3803 3938 3442 4084 
Q 3081 4231 2675 4231 
Q 1875 4231 1450 3742 
Q 1025 3253 1025 2328 
Q 1025 1406 1450 917 
Q 1875 428 2675 428 
Q 3081 428 3442 575 
Q 3803 722 4122 1019 
L 4122 359 
Q 3791 134 3420 21 
Q 3050 -91 2638 -91 
Q 1578 -91 968 557 
Q 359 1206 359 2328 
Q 359 3453 968 4101 
Q 1578 4750 2638 4750 
Q 3056 4750 3426 4639 
Q 3797 4528 4122 4306 
z
" transform="scale(0.015625)"/>
       <path id="DejaVuSans-64" d="M 2906 2969 
L 2906 4863 
L 3481 4863 
L 3481 0 
L 2906 0 
L 2906 525 
Q 2725 213 2448 61 
Q 2172 -91 1784 -91 
Q 1150 -91 751 415 
Q 353 922 353 1747 
Q 353 2572 751 3078 
Q 1150 3584 1784 3584 
Q 2172 3584 2448 3432 
Q 2725 3281 2906 2969 
z
M 947 1747 
Q 947 1113 1208 752 
Q 1469 391 1925 391 
Q 2381 391 2643 752 
Q 2906 1113 2906 1747 
Q 2906 2381 2643 2742 
Q 2381 3103 1925 3103 
Q 1469 3103 1208 2742 
Q 947 2381 947 1747 
z
" transform="scale(0.015625)"/>
      </defs>
      <use xlink:href="#DejaVuSans-43"/>
      <use xlink:href="#DejaVuSans-72" x="69.824219"/>
      <use xlink:href="#DejaVuSans-65" x="108.6875"/>
      <use xlink:href="#DejaVuSans-64" x="170.210938"/>
      <use xlink:href="#DejaVuSans-69" x="233.6875"/>
      <use xlink:href="#DejaVuSans-74" x="261.470703"/>
      <use xlink:href="#DejaVuSans-20" x="300.679688"/>
      <use xlink:href="#DejaVuSans-63" x="332.466797"/>
      <use xlink:href="#DejaVuSans-61" x="387.447266"/>
      <use xlink:href="#DejaVuSans-72" x="448.726562"/>
      <use xlink:href="#DejaVuSans-64" x="488.089844"/>
     </g>
    </g>
    <g id="patch_195">
     <path d="M 362.83 115.719188 
L 382.83 115.719188 
L 382.83 108.719188 
L 362.83 108.719188 
z
" style="fill: #ff7f0e"/>
    </g>
    <g id="text_40">
     <!-- Cash -->
     <g transform="translate(390.83 115.719188)scale(0.1 -0.1)">
      <use xlink:href="#DejaVuSans-43"/>
      <use xlink:href="#DejaVuSans-61" x="69.824219"/>
      <use xlink:href="#DejaVuSans-73" x="131.103516"/>
      <use xlink:href="#DejaVuSans-68" x="183.203125"/>
     </g>
    </g>
    <g id="patch_196">
     <path d="M 362.83 130.397312 
L 382.83 130.397312 
L 382.83 123.397312 
L 362.83 123.397312 
z
" style="fill: #2ca02c"/>
    </g>
    <g id="text_41">
     <!-- No charge -->
     <g transform="translate(390.83 130.397312)scale(0.1 -0.1)">
      <use xlink:href="#DejaVuSans-4e"/>
      <use xlink:href="#DejaVuSans-6f" x="74.804688"/>
      <use xlink:href="#DejaVuSans-20" x="135.986328"/>
      <use xlink:href="#DejaVuSans-63" x="167.773438"/>
      <use xlink:href="#DejaVuSans-68" x="222.753906"/>
      <use xlink:href="#DejaVuSans-61" x="286.132812"/>
      <use xlink:href="#DejaVuSans-72" x="347.412109"/>
      <use xlink:href="#DejaVuSans-67" x="386.775391"/>
      <use xlink:href="#DejaVuSans-65" x="450.251953"/>
     </g>
    </g>
    <g id="patch_197">
     <path d="M 362.83 145.075438 
L 382.83 145.075438 
L 382.83 138.075438 
L 362.83 138.075438 
z
" style="fill: #d62728"/>
    </g>
    <g id="text_42">
     <!-- Dispute -->
     <g transform="translate(390.83 145.075438)scale(0.1 -0.1)">
      <use xlink:href="#DejaVuSans-44"/>
      <use xlink:href="#DejaVuSans-69" x="77.001953"/>
      <use xlink:href="#DejaVuSans-73" x="104.785156"/>
      <use xlink:href="#DejaVuSans-70" x="156.884766"/>
      <use xlink:href="#DejaVuSans-75" x="220.361328"/>
      <use xlink:href="#DejaVuSans-74" x="283.740234"/>
      <use xlink:href="#DejaVuSans-65" x="322.949219"/>
     </g>
    </g>
    <g id="patch_198">
     <path d="M 362.83 159.753563 
L 382.83 159.753563 
L 382.83 152.753563 
L 362.83 152.753563 
z
" style="fill: #9467bd"/>
    </g>
    <g id="text_43">
     <!-- Unknown -->
     <g transform="translate(390.83 159.753563)scale(0.1 -0.1)">
      <defs>
       <path id="DejaVuSans-55" d="M 556 4666 
L 1191 4666 
L 1191 1831 
Q 1191 1081 1462 751 
Q 1734 422 2344 422 
Q 2950 422 3222 751 
Q 3494 1081 3494 1831 
L 3494 4666 
L 4128 4666 
L 4128 1753 
Q 4128 841 3676 375 
Q 3225 -91 2344 -91 
Q 1459 -91 1007 375 
Q 556 841 556 1753 
L 556 4666 
z
" transform="scale(0.015625)"/>
       <path id="DejaVuSans-6b" d="M 581 4863 
L 1159 4863 
L 1159 1991 
L 2875 3500 
L 3609 3500 
L 1753 1863 
L 3688 0 
L 2938 0 
L 1159 1709 
L 1159 0 
L 581 0 
L 581 4863 
z
" transform="scale(0.015625)"/>
       <path id="DejaVuSans-77" d="M 269 3500 
L 844 3500 
L 1563 769 
L 2278 3500 
L 2956 3500 
L 3675 769 
L 4391 3500 
L 4966 3500 
L 4050 0 
L 3372 0 
L 2619 2869 
L 1863 0 
L 1184 0 
L 269 3500 
z
" transform="scale(0.015625)"/>
      </defs>
      <use xlink:href="#DejaVuSans-55"/>
      <use xlink:href="#DejaVuSans-6e" x="73.193359"/>
      <use xlink:href="#DejaVuSans-6b" x="136.572266"/>
      <use xlink:href="#DejaVuSans-6e" x="194.482422"/>
      <use xlink:href="#DejaVuSans-6f" x="257.861328"/>
      <use xlink:href="#DejaVuSans-77" x="319.042969"/>
      <use xlink:href="#DejaVuSans-6e" x="400.830078"/>
     </g>
    </g>
    <g id="patch_199">
     <path d="M 362.83 174.431688 
L 382.83 174.431688 
L 382.83 167.431688 
L 362.83 167.431688 
z
" style="fill: #8c564b"/>
    </g>
    <g id="text_44">
     <!-- Voided trip -->
     <g transform="translate(390.83 174.431688)scale(0.1 -0.1)">
      <defs>
       <path id="DejaVuSans-56" d="M 1831 0 
L 50 4666 
L 709 4666 
L 2188 738 
L 3669 4666 
L 4325 4666 
L 2547 0 
L 1831 0 
z
" transform="scale(0.015625)"/>
      </defs>
      <use xlink:href="#DejaVuSans-56"/>
      <use xlink:href="#DejaVuSans-6f" x="60.658203"/>
      <use xlink:href="#DejaVuSans-69" x="121.839844"/>
      <use xlink:href="#DejaVuSans-64" x="149.623047"/>
      <use xlink:href="#DejaVuSans-65" x="213.099609"/>
      <use xlink:href="#DejaVuSans-64" x="274.623047"/>
      <use xlink:href="#DejaVuSans-20" x="338.099609"/>
      <use xlink:href="#DejaVuSans-74" x="369.886719"/>
      <use xlink:href="#DejaVuSans-72" x="409.095703"/>
      <use xlink:href="#DejaVuSans-69" x="450.208984"/>
      <use xlink:href="#DejaVuSans-70" x="477.992188"/>
     </g>
    </g>
   </g>
  </g>
 </g>
 <defs>
  <clipPath id="p1c2590bd79">
   <rect x="47.324" y="26.016" width="306.506" height="217.922"/>
  </clipPath>
 </defs>
</svg>
